<?xml version="1.0" encoding="UTF-8"?>
<svg xmlns="http://www.w3.org/2000/svg" xmlns:xlink="http://www.w3.org/1999/xlink" width="100" height="100" viewBox="0 0 2161.68 3278.4">
<defs>
<clipPath id="clip-0">
<path clip-rule="nonzero" d="M 1366 614 L 2161.679688 614 L 2161.679688 896 L 1366 896 Z M 1366 614 "/>
</clipPath>
<clipPath id="clip-1">
<path clip-rule="nonzero" d="M 855 771 L 1381 771 L 1381 3278.398438 L 855 3278.398438 Z M 855 771 "/>
</clipPath>
</defs>
<path fill-rule="evenodd" fill="rgb(27.098083%, 43.505859%, 90.625%)" fill-opacity="1" d="M 1366.511719 785.140625 C 1425.109375 559.960938 1526.75 320.128906 1732.171875 190.351562 C 1773.96875 163.941406 1827.941406 133.480469 1879.578125 142.640625 C 2057.808594 174.261719 1951.601562 404.5 1874.398438 475.320312 C 1726.210938 611.261719 1510.839844 643.261719 1366.511719 785.140625 "/>
<path fill-rule="evenodd" fill="rgb(27.098083%, 43.505859%, 90.625%)" fill-opacity="1" d="M 1367.351562 786.148438 C 1284.101562 575.691406 1156.929688 363.820312 1202.671875 127.308594 C 1242.410156 -78.210938 1469.011719 -12.140625 1490.21875 164.53125 C 1504.148438 280.558594 1462.109375 432.300781 1420.539062 540.011719 C 1394.058594 608.621094 1372.160156 711.429688 1367.351562 786.148438 "/>
<g clip-path="url(#clip-0)">
<path fill-rule="evenodd" fill="rgb(27.098083%, 43.505859%, 90.625%)" fill-opacity="1" d="M 1366.75 786.460938 C 1556.359375 687.558594 1733.738281 595.480469 1955.828125 618.390625 C 2011.78125 624.160156 2071.640625 642.699219 2115.578125 679.199219 C 2186.03125 737.71875 2174.160156 833.941406 2089.660156 870.828125 C 1867.269531 967.929688 1593.328125 744.058594 1366.75 786.460938 "/>
</g>
<path fill-rule="evenodd" fill="rgb(27.098083%, 43.505859%, 90.625%)" fill-opacity="1" d="M 1366.75 785.140625 C 1308.640625 753.96875 1255.898438 712.980469 1193.988281 689.121094 C 1080.621094 645.429688 944.066406 637.03125 842.253906 567.378906 C 676.558594 454.019531 739.640625 186.230469 952.464844 254.859375 C 1086.238281 297.988281 1173.199219 483.25 1245.648438 595 C 1282.640625 652.058594 1329.570312 728.160156 1366.75 785.140625 "/>
<path fill-rule="evenodd" fill="rgb(27.098083%, 43.505859%, 90.625%)" fill-opacity="1" d="M 638.675781 1318.328125 C 631.683594 1171.609375 605.148438 941.410156 691.796875 814.351562 C 734.488281 751.75 830.230469 660.75 900.675781 741.011719 C 921.113281 764.289062 935.261719 793.421875 936.441406 824.640625 C 944.578125 1040.378906 676.097656 1120.800781 638.675781 1318.328125 "/>
<path fill-rule="evenodd" fill="rgb(27.098083%, 43.505859%, 90.625%)" fill-opacity="1" d="M 638.957031 1318.328125 C 721.578125 1191.71875 858.023438 1039.96875 1005.269531 991.109375 C 1042.78125 978.660156 1085.089844 974.558594 1124.269531 980.101562 C 1189.710938 989.359375 1261.78125 1038.898438 1223.71875 1110.828125 C 1169.359375 1213.550781 1032.140625 1196.890625 935.777344 1202.210938 C 827.300781 1208.199219 707.503906 1236.011719 638.957031 1318.328125 "/>
<path fill-rule="evenodd" fill="rgb(27.098083%, 43.505859%, 90.625%)" fill-opacity="1" d="M 640.21875 1318.328125 C 511.015625 1190.75 328.695312 1070.328125 265.183594 892.339844 C 253.769531 860.359375 247.222656 826.058594 253.367188 792.261719 C 266.078125 722.359375 342.039062 639.539062 410.632812 700.609375 C 503.160156 782.980469 515.273438 983.660156 546.023438 1100.429688 C 565.105469 1172.890625 603.480469 1252.898438 640.21875 1318.328125 "/>
<path fill-rule="evenodd" fill="rgb(27.098083%, 43.505859%, 90.625%)" fill-opacity="1" d="M 640.21875 1324.050781 C 527.007812 1234.898438 290.011719 1090.46875 141.386719 1115.921875 C 13.347656 1137.851562 -65.621094 1312.480469 73.320312 1371.21875 C 141.875 1400.199219 253.648438 1350.390625 324.230469 1335.671875 C 428.847656 1313.851562 535.796875 1306.199219 640.21875 1324.050781 "/>
<path fill-rule="evenodd" fill="rgb(27.098083%, 43.505859%, 90.625%)" fill-opacity="1" d="M 640.21875 1318.328125 C 498.449219 1335.058594 303.121094 1378.589844 201.902344 1486.570312 C 166.925781 1523.871094 137.1875 1569.441406 126.578125 1620.140625 C 111.347656 1692.949219 171.515625 1746.191406 241.617188 1723.519531 C 353.78125 1687.238281 429.5 1543.101562 503.871094 1458.011719 C 540.882812 1415.671875 595.960938 1352.988281 640.21875 1318.328125 "/>
<g clip-path="url(#clip-1)">
<path fill-rule="evenodd" fill="rgb(71.09375%, 80.076599%, 44.309998%)" fill-opacity="1" d="M 1353.308594 780.941406 C 1315.289062 896.660156 1276.078125 1012.601562 1245.550781 1130.609375 C 1225.03125 1209.96875 1208.511719 1290.230469 1198.648438 1371.910156 C 1154.871094 1751.421875 1182.960938 2149.199219 1127.421875 2524.867188 C 1090.960938 2771.472656 1018.320312 3008.609375 861.570312 3224.054688 C 850.53125 3239.371094 854.003906 3260.765625 869.320312 3271.804688 C 884.636719 3282.84375 906.03125 3279.375 917.070312 3264.058594 C 1078.371094 3038.160156 1153.398438 2790.851562 1188.359375 2533.511719 C 1239.601562 2156.261719 1204.679688 1757.78125 1242.988281 1376.691406 C 1250.601562 1296.628906 1264.890625 1217.820312 1282.871094 1139.738281 C 1310.058594 1021.679688 1345.660156 905.378906 1380.191406 789.351562 C 1382.511719 781.929688 1378.378906 774.019531 1370.960938 771.699219 C 1363.539062 769.378906 1355.628906 773.519531 1353.308594 780.941406 "/>
</g>
<path fill-rule="evenodd" fill="rgb(71.09375%, 80.076599%, 44.309998%)" fill-opacity="1" d="M 627.476562 1326.488281 C 665.511719 1381.898438 695.289062 1440.378906 720.121094 1500.691406 C 770.757812 1623.671875 800.15625 1754.410156 834.777344 1883.019531 C 870.367188 2015.261719 911.597656 2145.089844 983.105469 2262.898438 C 1012.988281 2311.859375 1046.941406 2354.792969 1083.511719 2394.875 C 1137.511719 2454.0625 1197.300781 2506.898438 1257.761719 2564.328125 C 1349.949219 2651.789062 1427.71875 2745.589844 1489.398438 2848.605469 C 1550.859375 2951.242188 1596.21875 3063.078125 1623.789062 3187.015625 C 1627.988281 3205.421875 1646.328125 3216.964844 1664.738281 3212.769531 C 1683.148438 3208.578125 1694.691406 3190.230469 1690.5 3171.824219 C 1660 3040.957031 1610.859375 2923.042969 1544.671875 2815.109375 C 1478.988281 2708.007812 1396.589844 2610.699219 1299.109375 2520.257812 C 1238.980469 2464.53125 1179.578125 2413.3125 1125.710938 2355.84375 C 1091 2318.820312 1058.558594 2279.214844 1029.921875 2233.839844 C 958.699219 2121.628906 917.589844 1996.839844 880.054688 1870.21875 C 841.730469 1740.941406 807.28125 1609.738281 752.09375 1486.921875 C 724.464844 1425.441406 691.613281 1366.109375 650.433594 1310.171875 C 645.929688 1303.828125 637.128906 1302.339844 630.792969 1306.851562 C 624.460938 1311.351562 622.972656 1320.148438 627.476562 1326.488281 "/>
<path fill-rule="evenodd" fill="rgb(71.09375%, 80.076599%, 44.309998%)" fill-opacity="1" d="M 1357.421875 826.511719 C 1357.421875 826.511719 1457.828125 773.609375 1414.800781 726.898438 C 1371.769531 680.191406 1271.429688 716.351562 1357.421875 826.511719 "/>
<path fill-rule="evenodd" fill="rgb(71.09375%, 80.076599%, 44.309998%)" fill-opacity="1" d="M 657.148438 1345.921875 C 657.148438 1345.921875 671.007812 1298.128906 656.652344 1283.199219 C 642.296875 1268.269531 574.96875 1317.808594 611.835938 1335.089844 C 637.144531 1346.960938 657.148438 1345.921875 657.148438 1345.921875 "/>
<path fill-rule="evenodd" fill="rgb(29.80957%, 54.492188%, 33.68988%)" fill-opacity="1" d="M 1253.828125 1683.398438 C 1253.828125 1683.398438 1318.699219 1398.851562 1640.75 1440.609375 C 1640.75 1440.609375 1625.929688 1513.910156 1568.820312 1566.261719 C 1568.820312 1566.261719 1520.351562 1520.011719 1519.429688 1594.78125 C 1519.429688 1594.78125 1442.050781 1678.171875 1350.238281 1691.128906 C 1350.238281 1691.128906 1326.589844 1665.609375 1310.859375 1695.019531 C 1310.859375 1695.019531 1287.679688 1695.398438 1253.828125 1683.398438 "/>
<path fill-rule="evenodd" fill="rgb(29.80957%, 54.492188%, 33.68988%)" fill-opacity="1" d="M 1056.21875 1459.640625 C 1056.21875 1459.640625 764.519531 1786.488281 1137.738281 1922.050781 C 1137.738281 1922.050781 1182.808594 1812.769531 1102.289062 1695.019531 C 1021.761719 1577.269531 1052.828125 1507.789062 1056.21875 1459.640625 "/>
<path fill-rule="evenodd" fill="rgb(29.80957%, 54.492188%, 33.68988%)" fill-opacity="1" d="M 799.179688 2049.449219 C 799.179688 2049.449219 544.34375 1842.410156 336.703125 2118.761719 C 336.703125 2118.761719 622.164062 2170.820312 799.179688 2049.449219 "/>
<path fill-rule="evenodd" fill="rgb(71.09375%, 80.076599%, 44.309998%)" fill-opacity="1" d="M 1210.78125 1757.308594 C 1224.570312 1739.230469 1239.269531 1721.679688 1254.339844 1704.199219 C 1264.238281 1692.710938 1274.378906 1681.398438 1284.621094 1670.140625 C 1294.808594 1658.929688 1305.160156 1647.851562 1315.640625 1636.910156 C 1331.429688 1620.449219 1347.449219 1604.308594 1364.390625 1589.179688 C 1402.558594 1555.058594 1444.058594 1525.378906 1490.171875 1503.421875 C 1429.160156 1525.121094 1373.351562 1558.878906 1323.691406 1600.949219 C 1313.78125 1609.339844 1304.148438 1618.078125 1294.921875 1627.261719 C 1285.71875 1636.421875 1276.921875 1645.988281 1268.46875 1655.839844 C 1258.320312 1667.671875 1248.699219 1679.921875 1239.550781 1692.46875 C 1225.738281 1711.410156 1213.191406 1731.019531 1201.191406 1750.761719 C 1199.378906 1753.410156 1200.058594 1757.03125 1202.710938 1758.839844 C 1205.359375 1760.640625 1208.980469 1759.960938 1210.78125 1757.308594 "/>
<path fill-rule="evenodd" fill="rgb(71.09375%, 80.076599%, 44.309998%)" fill-opacity="1" d="M 960.214844 2161.878906 C 938.480469 2136.328125 916.121094 2114.109375 892.667969 2095.480469 C 875.464844 2081.820312 857.738281 2070.078125 839.5625 2060.210938 C 823.636719 2051.558594 807.34375 2044.351562 790.738281 2038.640625 C 773.785156 2032.808594 756.5 2028.558594 738.976562 2025.691406 C 658.515625 2012.5 573.238281 2027.769531 483.226562 2066.691406 C 573.738281 2035.359375 657.585938 2027.179688 735.265625 2044.738281 C 751.59375 2048.429688 767.597656 2053.289062 783.460938 2059.121094 C 798.980469 2064.820312 814.3125 2071.488281 829.492188 2079.28125 C 846.988281 2088.261719 864.269531 2098.628906 881.378906 2110.609375 C 905.175781 2127.269531 928.726562 2146.679688 951.664062 2169.738281 C 953.835938 2172.109375 957.515625 2172.261719 959.875 2170.089844 C 962.234375 2167.921875 962.386719 2164.238281 960.214844 2161.878906 "/>
<path fill-rule="evenodd" fill="rgb(71.09375%, 80.076599%, 44.309998%)" fill-opacity="1" d="M 1198.429688 2101.648438 C 1187.808594 2061.359375 1179.660156 2019.089844 1168.078125 1978.058594 C 1160.199219 1950.140625 1150.558594 1922.921875 1138.640625 1897.070312 C 1133.101562 1885.660156 1126.789062 1874.730469 1119.851562 1864.199219 C 1104.230469 1840.511719 1085.910156 1818.589844 1070.421875 1794.800781 C 1045.558594 1757.371094 1028.378906 1717.421875 1020.171875 1675.871094 C 1011.828125 1633.671875 1012.640625 1589.960938 1024.351562 1545.570312 C 1009.269531 1589.730469 1005.269531 1634.019531 1010.871094 1677.390625 C 1016.511719 1721.089844 1032 1763.648438 1055.378906 1804.121094 C 1069.828125 1828.609375 1086.839844 1851.570312 1101.78125 1875.738281 C 1107.949219 1885.710938 1113.828125 1895.839844 1118.828125 1906.511719 C 1127.871094 1925 1135.328125 1944.390625 1142.359375 1964.078125 C 1158.960938 2010.53125 1172.039062 2059.03125 1187.289062 2104.96875 C 1188.210938 2108.050781 1191.449219 2109.800781 1194.519531 2108.878906 C 1197.589844 2107.960938 1199.339844 2104.71875 1198.429688 2101.648438 "/>
</svg>
