<?xml version="1.0" encoding="UTF-8"?>
<svg xmlns="http://www.w3.org/2000/svg" xmlns:xlink="http://www.w3.org/1999/xlink" width="60" height="60" viewBox="0 0 2251 2251">
<path fill-rule="nonzero" fill="rgb(0%, 0%, 0%)" fill-opacity="1" d="M 425.128906 1.359375 C 382.894531 4.179688 283.222656 14.191406 236.554688 20.519531 C 171.515625 29.140625 138.78125 37.050781 126.957031 46.710938 C 122.3125 50.578125 117.457031 52.691406 111.332031 53.390625 C 106.472656 53.921875 95.492188 57.261719 87.046875 60.601562 C 43.757812 78.53125 16.726562 126.339844 4.480469 205.96875 C -0.589844 239.011719 -0.589844 338.5 4.480469 388.601562 C 13.769531 481.578125 33.410156 604.101562 54.738281 705 C 81.34375 830.320312 118.300781 947.570312 155.886719 1026.660156 C 167.078125 1050.390625 194.320312 1096.441406 200.65625 1102.601562 L 205.511719 1107.339844 L 272.03125 1109.628906 C 313.417969 1111.039062 402.320312 1111.910156 507.484375 1111.910156 L 676.417969 1111.910156 L 652.132812 1123.519531 C 566.398438 1164.46875 494.179688 1212.460938 405.066406 1287.867188 C 322.5 1357.824219 235.710938 1447.824219 190.308594 1510.925781 C 71.84375 1674.925781 58.960938 1849.292969 152.085938 2023.664062 C 190.941406 2096.785156 253.449219 2173.25 324.613281 2234.769531 L 342.5625 2250.238281 L 351.640625 2242.679688 C 356.710938 2238.636719 360.722656 2234.59375 360.722656 2233.714844 C 360.722656 2233.011719 357.976562 2229.320312 354.597656 2225.804688 C 330.523438 2200.492188 316.375 2159.890625 316.375 2116.121094 C 316.375 2072.703125 331.15625 2014.523438 355.019531 1965.65625 L 362.199219 1951.066406 L 374.234375 1963.371094 C 422.171875 2012.0625 487.421875 2045.460938 559.429688 2058.117188 C 581.601562 2061.980469 624.683594 2064.792969 624.683594 2062.332031 C 624.683594 2061.628906 617.925781 2051.085938 609.6875 2039.132812 C 499.882812 1879.527344 483.832031 1721.679688 562.386719 1568.933594 C 623.414062 1450.105469 751.382812 1328.46875 911.238281 1237.589844 C 933.410156 1224.941406 936.367188 1223.710938 938.265625 1226.339844 C 947.769531 1239.878906 968.253906 1251.480469 993.171875 1257.28125 C 1008.160156 1260.621094 1015.558594 1260.972656 1055.460938 1261.148438 C 1080.378906 1261.148438 1111.851562 1260.09375 1125.148438 1258.863281 C 1219.75 1250.070312 1273.390625 1244.269531 1282.050781 1241.808594 C 1288.378906 1240.058594 1296.828125 1235.480469 1304.859375 1229.328125 L 1317.308594 1219.660156 L 1333.570312 1229.859375 C 1400.308594 1272.222656 1463.230469 1342.003906 1491.109375 1404.582031 C 1511.589844 1450.632812 1517.5 1478.933594 1520.039062 1543.445312 C 1522.78125 1614.632812 1530.589844 1675.980469 1545.589844 1742.949219 C 1582.75 1909.234375 1647.578125 2050.558594 1727.191406 2140.027344 C 1747.039062 2162.175781 1777.871094 2188.363281 1800.890625 2202.425781 C 1817.570312 2212.796875 1850.941406 2228.265625 1852.839844 2226.683594 C 1853.261719 2226.332031 1856.851562 2216.136719 1860.859375 2204.183594 C 1885.140625 2131.238281 1919.988281 2068.308594 1949.769531 2044.40625 L 1957.160156 2038.429688 L 1964.96875 2046.339844 C 2046.898438 2126.492188 2128.628906 2193.8125 2175.5 2219.652344 C 2200 2233.011719 2211.191406 2236.527344 2232.101562 2237.40625 L 2250.679688 2238.109375 L 2226.609375 2197.152344 C 2178.878906 2116.121094 2144.460938 2041.945312 2131.371094 1992.550781 C 2129.679688 1985.695312 2127.140625 1968.292969 2126.089844 1953.878906 C 2123.558594 1922.417969 2119.75 1900.972656 2110.039062 1859.839844 C 2076.679688 1719.921875 2011.429688 1563.484375 1957.789062 1495.105469 C 1950.820312 1486.316406 1929.070312 1464.519531 1908.589844 1445.890625 C 1864.03125 1405.285156 1773.230469 1329.523438 1738.171875 1303.863281 C 1648.640625 1238.300781 1551.5 1182.75 1464.078125 1147.25 C 1444.441406 1139.160156 1424.800781 1131.601562 1420.789062 1130.371094 C 1416.769531 1129.140625 1412.550781 1127.558594 1411.710938 1126.859375 C 1410.648438 1126.148438 1431.558594 1125.101562 1458.160156 1124.570312 C 1508.628906 1123.519531 1533.550781 1121.230469 1574.519531 1113.5 C 1612.949219 1106.289062 1648.640625 1095.921875 1682.429688 1081.859375 C 1756.761719 1051.101562 1798.78125 1019.808594 1889.371094 927.53125 C 1933.5 882.351562 1997.488281 658.941406 2017.128906 480.878906 C 2027.46875 387.191406 2027.261719 311.429688 2016.070312 247.269531 C 2003.609375 175.558594 1978.910156 125.988281 1940.679688 96.640625 C 1885.78125 54.269531 1797.300781 32.648438 1702.480469 38.628906 C 1622.878906 43.730469 1540.308594 61.128906 1438.730469 94.179688 C 1328.300781 130.03125 1317.949219 133.898438 1308.871094 141.460938 C 1262.410156 179.601562 1222.921875 324.441406 1189.769531 579.320312 C 1183.859375 625.019531 1174.988281 703.058594 1171.398438 743.660156 C 1170.128906 758.609375 1168.648438 771.261719 1168.230469 771.441406 C 1168.019531 771.789062 1161.050781 768.800781 1152.808594 764.761719 C 1137.398438 757.199219 1106.570312 747.179688 1098.328125 747.179688 C 1086.929688 747.179688 1073.199219 714.660156 1039.628906 608.320312 C 987.46875 442.910156 969.730469 390.710938 944.601562 327.960938 C 910.179688 241.820312 874.070312 175.558594 839.019531 134.601562 C 780.101562 65.871094 685.289062 20.699219 569.777344 6.460938 C 524.800781 0.839844 464.40625 -1.269531 425.128906 1.359375 Z M 432.730469 295.960938 C 541.480469 416.898438 666.070312 570.179688 803.753906 752.808594 C 829.726562 787.261719 901.523438 883.761719 906.804688 891.671875 C 907.226562 892.191406 893.710938 887.449219 876.394531 880.769531 C 859.289062 874.269531 835.851562 866 824.234375 862.308594 C 788.335938 850.710938 635.027344 786.199219 564.5 752.808594 C 530.289062 736.628906 499.246094 719.929688 493.125 714.128906 C 473.273438 695.679688 437.375 565.429688 412.667969 422 C 399.578125 345.890625 390.707031 256.589844 396.199219 256.769531 C 397.042969 256.941406 413.511719 274.519531 432.730469 295.960938 Z M 1613.371094 282.429688 C 1667.429688 297.371094 1668.910156 297.71875 1679.679688 306.339844 C 1704.179688 325.5 1724.449219 372.070312 1737.328125 437.820312 C 1746.410156 484.921875 1751.691406 529.21875 1758.660156 620.621094 C 1760.980469 651.03125 1763.941406 683.898438 1765.199219 693.570312 C 1766.261719 703.238281 1767.738281 715.890625 1768.578125 721.871094 C 1770.269531 736.808594 1766.050781 754.558594 1757.179688 770.03125 C 1744.300781 792.359375 1706.710938 820.828125 1660.890625 842.800781 C 1638.5 853.519531 1557.628906 886.039062 1534.609375 893.601562 C 1482.238281 910.828125 1401.988281 928.058594 1333.570312 936.671875 L 1321.539062 938.25 L 1333.789062 927.53125 C 1346.671875 916.28125 1359.96875 900.808594 1367.789062 888.328125 C 1381.300781 866 1390.800781 833.660156 1429.230469 678.628906 C 1479.488281 475.429688 1508.210938 373.828125 1531.441406 315.648438 C 1541.789062 289.808594 1553.398438 267.308594 1556.359375 267.308594 C 1557.410156 267.308594 1583.179688 274.171875 1613.371094 282.429688 Z M 1613.371094 282.429688 "/>
</svg>
