<?xml version="1.0" encoding="UTF-8"?>
<svg xmlns="http://www.w3.org/2000/svg" xmlns:xlink="http://www.w3.org/1999/xlink" width="110" height="110" viewBox="0 0 1315 2926">
<path fill-rule="nonzero" fill="rgb(75.389099%, 82.8125%, 65.039062%)" fill-opacity="1" d="M 1255.429688 1908.078125 C 1133.25 1926.382812 967.324219 1927.882812 863.164062 2005.304688 C 618.75 2186.988281 509.386719 2351.179688 513.347656 2314.484375 C 521.144531 2242.269531 669.914062 1944.910156 739.574219 1894.441406 C 969.128906 1728.121094 1174.070312 1861.410156 1255.429688 1908.078125 Z M 1255.429688 1908.078125 "/>
<path fill="none" stroke-width="519.326" stroke-linecap="round" stroke-linejoin="miter" stroke="rgb(76.171875%, 83.59375%, 65.818787%)" stroke-opacity="1" stroke-miterlimit="4" d="M 6800.195312 22807.8125 C 7747.109375 15747.617188 5205.234375 5689.023438 3633.671875 264.648438 " transform="matrix(0.1, 0, 0, -0.1, 0, 2926)"/>
<path fill-rule="nonzero" fill="rgb(95.701599%, 84.375%, 84.375%)" fill-opacity="1" d="M 1128.808594 587.871094 C 1271.421875 528.980469 1315.300781 453.921875 1290.519531 393.921875 C 1265.738281 333.929688 1151.410156 324.21875 1008.800781 383.121094 C 866.195312 442.03125 665.652344 602.121094 683.261719 644.75 C 702.917969 692.328125 986.207031 646.789062 1128.808594 587.871094 Z M 1128.808594 587.871094 "/>
<path fill-rule="nonzero" fill="rgb(95.701599%, 84.375%, 84.375%)" fill-opacity="1" d="M 1066.289062 926.910156 C 1211.378906 979.140625 1292.300781 961.398438 1311.839844 910.621094 C 1331.371094 859.839844 1251.328125 784.160156 1106.238281 731.929688 C 961.140625 679.699219 707.882812 652.121094 694 688.210938 C 678.503906 728.480469 921.195312 874.671875 1066.289062 926.910156 Z M 1066.289062 926.910156 "/>
<path fill-rule="nonzero" fill="rgb(95.701599%, 84.375%, 84.375%)" fill-opacity="1" d="M 698.878906 1136.238281 C 744.136719 1279.089844 809.414062 1323.929688 864.902344 1300.191406 C 920.390625 1276.460938 935.464844 1162.820312 890.207031 1019.96875 C 844.953125 877.121094 711.621094 675.039062 672.191406 691.898438 C 628.183594 710.71875 653.621094 993.378906 698.878906 1136.238281 Z M 698.878906 1136.238281 "/>
<path fill-rule="nonzero" fill="rgb(95.701599%, 84.375%, 84.375%)" fill-opacity="1" d="M 535.878906 1144.761719 C 465.628906 1277.828125 401.433594 1311.960938 361.113281 1280.441406 C 320.789062 1248.910156 334.523438 1135.421875 404.769531 1002.351562 C 475.019531 869.28125 631.59375 691.398438 660.246094 713.800781 C 692.222656 738.808594 606.128906 1011.691406 535.878906 1144.761719 Z M 535.878906 1144.761719 "/>
<path fill-rule="nonzero" fill="rgb(95.701599%, 84.375%, 84.375%)" fill-opacity="1" d="M 278.765625 945.558594 C 136.742188 1005.871094 52.476562 984.480469 27.105469 924.730469 C 1.738281 864.980469 75.019531 776.699219 217.042969 716.390625 C 359.066406 656.089844 613.839844 625.488281 631.867188 667.941406 C 651.988281 715.328125 420.789062 885.261719 278.765625 945.558594 Z M 278.765625 945.558594 "/>
<path fill-rule="nonzero" fill="rgb(95.701599%, 84.375%, 84.375%)" fill-opacity="1" d="M 940.378906 234.449219 C 994.730469 94.808594 972.011719 18.941406 913.910156 2.621094 C 855.808594 -13.699219 772.789062 65.351562 718.4375 204.988281 C 664.085938 344.640625 641.179688 585.660156 682.464844 597.25 C 728.546875 610.199219 886.027344 374.101562 940.378906 234.449219 Z M 940.378906 234.449219 "/>
<path fill-rule="nonzero" fill="rgb(95.701599%, 84.375%, 84.375%)" fill-opacity="1" d="M 165.238281 558.839844 C 24.0625 506.769531 -18.238281 447.628906 7.691406 403.5 C 33.621094 359.371094 147.933594 358.019531 289.105469 410.089844 C 430.28125 462.171875 627.261719 593.910156 608.839844 625.261719 C 588.273438 660.261719 306.414062 610.921875 165.238281 558.839844 Z M 165.238281 558.839844 "/>
<path fill-rule="nonzero" fill="rgb(95.701599%, 84.375%, 84.375%)" fill-opacity="1" d="M 348.859375 271.988281 C 282.785156 132.558594 300.699219 47.480469 359.355469 19.691406 C 418.011719 -8.109375 509.230469 61.5 575.304688 200.929688 C 641.378906 340.359375 682.398438 593.660156 640.714844 613.410156 C 594.195312 635.460938 414.933594 411.421875 348.859375 271.988281 Z M 348.859375 271.988281 "/>
<path fill-rule="nonzero" fill="rgb(98.046875%, 88.671875%, 59.568787%)" fill-opacity="1" d="M 684.769531 446.910156 C 581.398438 438.179688 487.855469 457.441406 460.347656 589.339844 C 439.167969 690.890625 502.328125 805.191406 602.746094 813.761719 C 706.109375 822.570312 818.804688 779.761719 827.164062 671.359375 C 835.144531 567.921875 798.84375 456.539062 684.769531 446.910156 Z M 684.769531 446.910156 "/>
<path fill-rule="nonzero" fill="rgb(75.389099%, 82.8125%, 65.039062%)" fill-opacity="1" d="M 142.222656 1404.160156 C 233.128906 1450.03125 362.613281 1494.03125 424.160156 1581.519531 C 568.570312 1786.820312 611.789062 1943.566406 618.160156 1913.820312 C 630.699219 1855.28125 591.011719 1584.128906 549.511719 1526.640625 C 412.769531 1337.199219 217.945312 1388.628906 142.222656 1404.160156 Z M 142.222656 1404.160156 "/>
</svg>
