<?xml version="1.0" encoding="UTF-8"?>
<svg xmlns="http://www.w3.org/2000/svg" xmlns:xlink="http://www.w3.org/1999/xlink" width="1949.76" height="3305.76" viewBox="0 0 1949.76 3305.76">
<defs>
<clipPath id="clip-0">

</clipPath>
<clipPath id="clip-1">
<path clip-rule="nonzero" d="M 1217 1485 L 1511 1485 L 1511 3305.761719 L 1217 3305.761719 Z M 1217 1485 "/>
</clipPath>
<clipPath id="clip-2">
<path clip-rule="nonzero" d="M 1381 1863 L 1949.761719 1863 L 1949.761719 2507 L 1381 2507 Z M 1381 1863 "/>
</clipPath>
<clipPath id="clip-3">
<path clip-rule="nonzero" d="M 964 2573 L 1801 2573 L 1801 3305.761719 L 964 3305.761719 Z M 964 2573 "/>
</clipPath>
<clipPath id="clip-4">
<path clip-rule="nonzero" d="M 471 1338 L 1317 1338 L 1317 3305.761719 L 471 3305.761719 Z M 471 1338 "/>
</clipPath>
</defs>
<g clip-path="url(#clip-0)">
<path fill-rule="evenodd"   fill-opacity="1" d="M 1099.949219 3305.636719 L 1118.011719 3305.636719 C 1106.050781 2880.902344 1220.339844 2509.382812 1230.769531 2089.480469 C 1237.238281 1828.910156 1136.738281 1601.800781 1110.53125 1347.441406 C 1081.859375 1069.289062 1114.820312 787.53125 1085.269531 507.851562 C 1084.75 502.890625 1080.300781 499.300781 1075.339844 499.820312 C 1070.378906 500.339844 1066.78125 504.789062 1067.300781 509.75 C 1096.851562 789.421875 1063.890625 1071.160156 1092.550781 1349.300781 C 1118.691406 1602.878906 1219.160156 1829.261719 1212.710938 2089.03125 C 1202.28125 2509.101562 1088.238281 2880.828125 1099.949219 3305.636719 "/>
</g>
<g clip-path="url(#clip-1)">
<path fill-rule="evenodd"   fill-opacity="1" d="M 1217.871094 3305.636719 L 1235.941406 3305.636719 C 1237.140625 3280.421875 1238.890625 3255.226562 1240.171875 3229.777344 C 1247.328125 3086.554688 1265.25 2937.683594 1308.839844 2799.664062 C 1400.019531 2510.921875 1487.050781 2214.140625 1508.789062 1909.78125 C 1517.988281 1781.050781 1472.378906 1621.609375 1472.378906 1494.679688 C 1472.378906 1489.691406 1468.339844 1485.640625 1463.351562 1485.640625 C 1458.359375 1485.640625 1454.308594 1489.691406 1454.308594 1494.679688 C 1454.308594 1621.210938 1499.941406 1780.160156 1490.769531 1908.488281 C 1469.128906 2211.441406 1382.359375 2506.816406 1291.609375 2794.21875 C 1247.558594 2933.703125 1229.351562 3084.136719 1222.121094 3228.875 C 1220.828125 3254.625 1219.070312 3280.121094 1217.871094 3305.636719 "/>
</g>
<g clip-path="url(#clip-2)">
<path fill-rule="evenodd"   fill-opacity="1" d="M 1387.859375 2483.34375 C 1386.101562 2486.457031 1384.398438 2489.660156 1382.761719 2492.964844 C 1380.550781 2497.433594 1382.378906 2502.855469 1386.851562 2505.070312 C 1391.320312 2507.285156 1396.738281 2505.457031 1398.960938 2500.988281 C 1423.550781 2451.359375 1463.671875 2426.535156 1509.199219 2410.871094 C 1556.710938 2394.527344 1610.03125 2387.964844 1658.878906 2375.15625 C 1750.800781 2351.0625 1835.851562 2293.808594 1882.371094 2209.851562 C 1922.320312 2137.769531 1935.128906 2053.839844 1943.121094 1972.96875 C 1946.308594 1940.738281 1952.128906 1904.820312 1948.609375 1872.398438 C 1947.75 1864.511719 1941.621094 1863.921875 1940.101562 1863.808594 C 1937.871094 1863.640625 1934.378906 1864 1931.800781 1867.941406 C 1931.429688 1868.511719 1930.769531 1869.730469 1930.289062 1871.519531 C 1929.820312 1873.320312 1929.179688 1877.078125 1928.710938 1878.710938 C 1926.96875 1884.808594 1925.199219 1890.898438 1923.160156 1896.898438 C 1916.691406 1915.960938 1908.441406 1934.621094 1898.929688 1952.351562 C 1869.710938 2006.828125 1829.300781 2052.488281 1784.351562 2094.46875 C 1721.53125 2153.140625 1644.039062 2193.96875 1576.640625 2246.890625 C 1497.621094 2308.949219 1434.339844 2385.359375 1387.191406 2473.773438 C 1385.511719 2476.925781 1385.890625 2480.636719 1387.859375 2483.34375 Z M 1929.609375 1930.351562 C 1925.128906 1940.75 1920.179688 1950.960938 1914.859375 1960.890625 C 1884.691406 2017.128906 1843.078125 2064.339844 1796.691406 2107.679688 C 1733.480469 2166.699219 1655.601562 2207.859375 1587.800781 2261.101562 C 1526.898438 2308.929688 1475.601562 2365.507812 1434.070312 2429.699219 C 1454.691406 2413.699219 1478.210938 2402.425781 1503.320312 2393.789062 C 1551.25 2377.292969 1605.019531 2370.597656 1654.300781 2357.679688 C 1741.511719 2334.816406 1822.429688 2280.761719 1866.570312 2201.089844 C 1905.320312 2131.171875 1917.390625 2049.648438 1925.140625 1971.191406 C 1926.441406 1958.050781 1928.238281 1944.25 1929.609375 1930.351562 "/>
</g>
<path fill-rule="evenodd"   fill-opacity="1" d="M 905.726562 1582.351562 C 907.941406 1585.820312 910.03125 1589.421875 911.847656 1593.101562 C 917.648438 1604.859375 920.839844 1617.839844 922.3125 1630.828125 C 927.429688 1676 922.886719 1722.160156 925.015625 1767.511719 C 927.144531 1812.941406 931.140625 1858.828125 946.988281 1901.828125 C 973.628906 1974.070312 1015.441406 2024.210938 1062.589844 2069.300781 C 1108.648438 2113.351562 1159.859375 2152.488281 1206.410156 2203.53125 C 1209.769531 2207.210938 1215.480469 2207.46875 1219.171875 2204.109375 C 1222.851562 2200.75 1223.121094 2195.039062 1219.75 2191.351562 L 1217.589844 2188.988281 C 1218.421875 2187.078125 1218.601562 2184.871094 1217.929688 2182.730469 C 1202.640625 2133.390625 1193.898438 2082.140625 1168.800781 2036.21875 C 1141.691406 1986.621094 1101.289062 1946.019531 1077.148438 1894.488281 C 1052.230469 1841.261719 1040.929688 1781.609375 1025.050781 1725.351562 C 1015.988281 1693.210938 1002.171875 1646.089844 978.304688 1611.121094 C 961.316406 1586.230469 939.253906 1567.46875 910.847656 1562.761719 C 906.597656 1562.058594 904.21875 1563.78125 902.910156 1564.921875 C 900.671875 1566.871094 899.296875 1569.570312 899.855469 1573.28125 C 900.023438 1574.390625 900.542969 1576.199219 901.988281 1578.121094 C 902.792969 1579.199219 905.394531 1581.988281 905.726562 1582.351562 Z M 929.535156 1588.25 C 935.34375 1601.019531 938.691406 1614.878906 940.265625 1628.800781 C 945.425781 1674.351562 940.917969 1720.921875 943.0625 1766.671875 C 945.105469 1810.261719 948.734375 1854.320312 963.945312 1895.578125 C 989.511719 1964.929688 1029.820312 2012.960938 1075.078125 2056.238281 C 1113.011719 2092.511719 1154.371094 2125.488281 1193.808594 2164.429688 C 1182.609375 2123.710938 1173.46875 2082.449219 1152.949219 2044.890625 C 1125.648438 1994.960938 1085.078125 1954.03125 1060.789062 1902.148438 C 1035.449219 1848.039062 1023.800781 1787.449219 1007.660156 1730.25 C 999.023438 1699.628906 986.117188 1654.628906 963.378906 1621.308594 C 953.96875 1607.519531 942.886719 1595.71875 929.535156 1588.25 "/>
<path fill-rule="evenodd"   fill-opacity="1" d="M 349.199219 2060.710938 C 353.6875 2061.128906 356.226562 2061.339844 361.035156 2061.960938 C 376.128906 2063.898438 390.929688 2067.019531 405.375 2071.878906 C 444.359375 2085.011719 478.671875 2109.03125 510.679688 2134.351562 C 599.015625 2204.25 679.164062 2291.871094 783.832031 2338.066406 C 842.773438 2364.09375 906.328125 2362.699219 968.542969 2374.085938 C 1011.710938 2381.980469 1049.640625 2399.699219 1088.390625 2419.558594 C 1092.28125 2421.546875 1097.03125 2420.476562 1099.679688 2417.011719 C 1102.339844 2413.550781 1102.140625 2408.679688 1099.199219 2405.449219 C 1036.101562 2335.921875 961.101562 2316.234375 888.316406 2258.769531 C 789.5625 2180.808594 706.285156 2074.628906 580.753906 2039.328125 C 521.628906 2022.710938 456.207031 2011.421875 394.914062 2022.238281 C 386.019531 2023.808594 365.398438 2027.390625 351.347656 2033.640625 C 343.535156 2037.109375 337.625 2041.679688 334.828125 2046.558594 C 333.035156 2049.691406 333.304688 2052.28125 333.863281 2054.191406 C 334.484375 2056.289062 335.726562 2058.101562 337.789062 2059.449219 C 338.96875 2060.21875 340.800781 2061.011719 343.242188 2061.121094 C 344.703125 2061.191406 348.65625 2060.769531 349.199219 2060.710938 Z M 372.65625 2045.390625 C 382.582031 2042.679688 392.679688 2040.988281 398.0625 2040.039062 C 456.707031 2029.671875 519.28125 2040.820312 575.859375 2056.730469 C 636.785156 2073.859375 687.316406 2108.410156 734.664062 2148.019531 C 783.058594 2188.511719 828.132812 2234.28125 877.117188 2272.949219 C 913.664062 2301.800781 950.773438 2321.167969 986.691406 2342.007812 C 1005.429688 2352.882812 1023.851562 2364.164062 1041.640625 2377.546875 C 1019.289062 2368.296875 996.347656 2360.804688 971.796875 2356.3125 C 910.96875 2345.175781 848.753906 2346.976562 791.132812 2321.539062 C 687.859375 2275.949219 609.046875 2189.148438 521.886719 2120.179688 C 488.261719 2093.578125 452.097656 2068.550781 411.136719 2054.761719 C 398.554688 2050.519531 385.710938 2047.5 372.65625 2045.390625 "/>
<g clip-path="url(#clip-3)">
<path fill-rule="evenodd"   fill-opacity="1" d="M 964.46875 3305.636719 L 982.699219 3305.636719 C 1044.078125 2928.597656 1411.308594 2608.851562 1791.871094 2591.164062 C 1796.839844 2590.929688 1800.699219 2586.699219 1800.46875 2581.71875 C 1800.238281 2576.738281 1796.011719 2572.882812 1791.019531 2573.113281 C 1401.511719 2591.21875 1025.96875 2919.402344 964.46875 3305.636719 "/>
</g>
<path fill-rule="evenodd"   fill-opacity="1" d="M 1766.101562 2584.714844 C 1781.660156 2574.023438 1797.429688 2563.523438 1814.878906 2556.113281 C 1837.03125 2546.703125 1864.679688 2541.847656 1887.371094 2552.234375 C 1899.519531 2557.789062 1911.878906 2571.460938 1902.460938 2585.050781 C 1893.121094 2598.535156 1874.96875 2603.765625 1859.5 2605.199219 C 1828.480469 2608.078125 1795.699219 2596.007812 1766.101562 2584.714844 "/>
<path fill-rule="evenodd"   fill-opacity="1" d="M 1645.351562 2605.632812 C 1691.308594 2606.910156 1738.820312 2609.800781 1776.449219 2639.953125 C 1779.851562 2642.675781 1782.910156 2645.53125 1785.941406 2648.636719 C 1793.460938 2656.351562 1811.320312 2680.367188 1795.371094 2689.101562 C 1779.089844 2698.019531 1757.160156 2689.359375 1742.039062 2681.847656 C 1705.128906 2663.515625 1680.058594 2627.328125 1645.351562 2605.632812 "/>
<path fill-rule="evenodd"   fill-opacity="1" d="M 1633.269531 2602.691406 C 1640.609375 2582.183594 1649.78125 2562.105469 1659.671875 2542.695312 C 1670.429688 2521.578125 1683.480469 2498.511719 1705.328125 2487.296875 C 1722.03125 2478.726562 1742.191406 2477.730469 1746.191406 2500.4375 C 1746.871094 2504.332031 1746.941406 2508.558594 1746.578125 2512.480469 C 1745.128906 2528.414062 1734.75 2543.0625 1723.851562 2554.160156 C 1702.320312 2576.09375 1662.828125 2594.078125 1633.269531 2602.691406 "/>
<path fill-rule="evenodd"   fill-opacity="1" d="M 1535.988281 2638.265625 C 1564.308594 2640.664062 1591.300781 2651.816406 1614.851562 2667.511719 C 1626.578125 2675.324219 1637.441406 2684.582031 1647.160156 2694.785156 C 1656.738281 2704.851562 1666.550781 2717.71875 1668.148438 2731.984375 C 1670.28125 2751.023438 1655.320312 2760.246094 1637.519531 2753.90625 C 1617.089844 2746.628906 1602.96875 2725.996094 1591.121094 2708.972656 C 1576.199219 2687.523438 1553.53125 2657.765625 1535.988281 2638.265625 "/>
<path fill-rule="evenodd"   fill-opacity="1" d="M 1516.621094 2643.359375 C 1516.121094 2624.316406 1516.691406 2605.679688 1518.640625 2586.714844 C 1520.398438 2569.558594 1524.429688 2548.734375 1538.351562 2536.988281 C 1553.960938 2523.808594 1574.421875 2530.695312 1576.398438 2551.753906 C 1579.511719 2584.695312 1536.421875 2620.773438 1516.621094 2643.359375 "/>
<path fill-rule="evenodd"   fill-opacity="1" d="M 1418.308594 2695.503906 C 1459.640625 2702.839844 1509.21875 2710.984375 1538.289062 2744.546875 C 1547.121094 2754.738281 1563.300781 2778.265625 1548.671875 2790.484375 C 1535.789062 2801.257812 1513.480469 2792.695312 1500.78125 2786.289062 C 1462.808594 2767.140625 1442.960938 2727.273438 1418.308594 2695.503906 "/>
<path fill-rule="evenodd"   fill-opacity="1" d="M 1407.371094 2700.585938 C 1401.421875 2683.242188 1395.488281 2665.929688 1391.078125 2648.113281 C 1386.640625 2630.203125 1382.488281 2608.46875 1390.371094 2590.859375 C 1400.078125 2569.132812 1429.039062 2571.863281 1440.480469 2590.191406 C 1461.039062 2623.128906 1427.308594 2673.359375 1407.371094 2700.585938 "/>
<path fill-rule="evenodd"   fill-opacity="1" d="M 1323.101562 2761.605469 C 1363.371094 2761.789062 1401.28125 2775.121094 1431.710938 2802.046875 C 1442.679688 2811.757812 1463.890625 2831.363281 1452.25 2847.691406 C 1441.820312 2862.328125 1417.128906 2855.816406 1404.058594 2849.667969 C 1369.28125 2833.292969 1342.699219 2794.171875 1323.101562 2761.605469 "/>
<path fill-rule="evenodd"   fill-opacity="1" d="M 1300.640625 2769.628906 C 1299.75 2751.71875 1305.390625 2727.144531 1304.648438 2709.234375 C 1303.960938 2692.140625 1303.019531 2670.554688 1291.011719 2656.851562 C 1279.988281 2644.296875 1259.78125 2641.296875 1252.550781 2659.472656 C 1236.898438 2698.855469 1272.738281 2745.066406 1300.640625 2769.628906 "/>
<path fill-rule="evenodd"   fill-opacity="1" d="M 767.738281 2025.699219 C 767.25 2024.921875 766.632812 2024.191406 765.890625 2023.558594 C 748.140625 2008.519531 728.355469 1996.96875 711.75 1980.378906 C 689.75 1958.410156 672.757812 1931.761719 649.972656 1910.589844 C 638.933594 1900.339844 627.046875 1890.570312 613.496094 1883.800781 C 611.753906 1882.929688 603.605469 1878.839844 599.246094 1878.039062 C 595.144531 1877.28125 592.054688 1878.460938 590.292969 1879.738281 C 588.398438 1881.109375 586.445312 1883.480469 586.316406 1887.449219 C 586.261719 1889.03125 586.777344 1891.941406 587.953125 1895.171875 C 589.636719 1899.78125 592.542969 1905.71875 592.851562 1906.339844 C 600.566406 1922.171875 611.46875 1935.761719 623.707031 1948.320312 C 671.960938 1997.828125 734.398438 2021.101562 788.648438 2061.75 C 863.804688 2118.039062 923.851562 2188.5 977.972656 2264.738281 C 1010.789062 2310.984375 1039.019531 2360.179688 1075.578125 2403.667969 C 1078.789062 2407.484375 1084.488281 2407.976562 1088.308594 2404.773438 C 1092.121094 2401.558594 1092.621094 2395.859375 1089.410156 2392.039062 C 1053.171875 2348.925781 1025.238281 2300.121094 992.703125 2254.28125 C 937.496094 2176.5 876.152344 2104.71875 799.484375 2047.28125 C 789.15625 2039.539062 778.515625 2032.449219 767.738281 2025.699219 Z M 611.699219 1903.429688 C 618.332031 1915.390625 627.066406 1925.878906 636.644531 1935.710938 C 650.023438 1949.429688 664.519531 1961.089844 679.640625 1971.648438 C 666.042969 1955.320312 653.226562 1938.28125 637.671875 1923.828125 C 629.628906 1916.359375 621.132812 1909.101562 611.699219 1903.429688 "/>
<path fill-rule="evenodd"   fill-opacity="1" d="M 1423.011719 2037.230469 C 1423.390625 2036.03125 1423.519531 2034.738281 1423.351562 2033.410156 C 1415.800781 1972.859375 1430.839844 1915.199219 1428.699219 1854.820312 C 1428.300781 1843.671875 1426.460938 1823.71875 1419.359375 1809.761719 C 1413.351562 1797.941406 1403.871094 1790.089844 1390.101562 1790.710938 C 1387.621094 1790.820312 1384.191406 1792.019531 1381.601562 1795.839844 C 1379.191406 1799.390625 1376.621094 1808.171875 1376.261719 1809.519531 C 1372.289062 1824.328125 1372.839844 1840.421875 1373.871094 1855.539062 C 1378.019531 1916.851562 1395.789062 1975.960938 1404.648438 2036.570312 C 1428.269531 2198.019531 1429.710938 2326.382812 1384.199219 2484.320312 C 1382.820312 2489.109375 1385.589844 2494.125 1390.378906 2495.503906 C 1395.171875 2496.886719 1400.179688 2494.117188 1401.558594 2489.324219 C 1447.539062 2329.769531 1446.570312 2199.910156 1423.011719 2037.230469 Z M 1395.328125 1809.46875 C 1394.609375 1811.519531 1393.820312 1813.78125 1393.710938 1814.210938 C 1390.25 1827.101562 1391 1841.140625 1391.890625 1854.320312 C 1394 1885.46875 1399.679688 1916.050781 1405.898438 1946.539062 C 1408.429688 1916.398438 1411.730469 1886.28125 1410.640625 1855.460938 C 1410.308594 1846.199219 1409.160156 1829.550781 1403.261719 1817.960938 C 1401.320312 1814.160156 1398.871094 1810.871094 1395.328125 1809.46875 "/>
<path fill-rule="evenodd"   fill-opacity="1" d="M 1419.691406 2453.628906 C 1489.070312 2370.191406 1597.339844 2324.574219 1684.820312 2263.25 C 1742.140625 2223.070312 1798.210938 2177.699219 1840.050781 2120.96875 C 1883.519531 2062.03125 1911.589844 1988.410156 1929.929688 1917.738281 C 1930.558594 1915.328125 1929.109375 1912.859375 1926.691406 1912.230469 C 1924.28125 1911.609375 1921.808594 1913.058594 1921.191406 1915.46875 C 1903.121094 1985.050781 1875.570312 2057.578125 1832.78125 2115.601562 C 1791.519531 2171.550781 1736.160156 2216.230469 1679.628906 2255.851562 C 1591.519531 2317.621094 1482.628906 2363.808594 1412.75 2447.855469 C 1411.160156 2449.769531 1411.421875 2452.621094 1413.328125 2454.214844 C 1415.25 2455.808594 1418.101562 2455.546875 1419.691406 2453.628906 "/>
<path fill-rule="evenodd"   fill-opacity="1" d="M 1203.761719 2172.25 C 1167.640625 2118.421875 1132.96875 2063.511719 1096.171875 2010.171875 C 1063.628906 1963.011719 1026.820312 1915.671875 1007.601562 1861.171875 C 987.703125 1804.761719 980.253906 1745.878906 969.441406 1687.371094 C 962.703125 1650.921875 954.707031 1607.179688 929.429688 1578.308594 C 927.792969 1576.429688 924.933594 1576.238281 923.058594 1577.890625 C 921.183594 1579.53125 920.992188 1582.378906 922.636719 1584.261719 C 946.875 1611.949219 954.097656 1654.058594 960.554688 1689.011719 C 971.453125 1747.980469 979.023438 1807.320312 999.078125 1864.171875 C 1018.558594 1919.421875 1055.75 1967.488281 1088.738281 2015.300781 C 1125.511719 2068.609375 1160.171875 2123.488281 1196.261719 2177.28125 C 1197.648438 2179.351562 1200.460938 2179.898438 1202.53125 2178.511719 C 1204.601562 2177.121094 1205.160156 2174.320312 1203.761719 2172.25 "/>
<path fill-rule="evenodd"   fill-opacity="1" d="M 1067.691406 2380.554688 C 1019.878906 2366.351562 976.15625 2344.734375 930.78125 2324.648438 C 863.335938 2294.789062 798.238281 2265.011719 738.953125 2220.609375 C 712.746094 2200.980469 686.828125 2181.28125 663.503906 2158.308594 C 635.289062 2130.519531 607.476562 2097.71875 571.402344 2079.46875 C 538.101562 2062.628906 500.9375 2056.71875 463.105469 2053.128906 C 426.023438 2049.609375 388.296875 2048.308594 353.074219 2040.570312 C 350.640625 2040.03125 348.234375 2041.578125 347.695312 2044.011719 C 347.160156 2046.441406 348.707031 2048.859375 351.140625 2049.390625 C 386.707031 2057.210938 424.800781 2058.570312 462.25 2062.121094 C 498.945312 2065.609375 535.023438 2071.191406 567.324219 2087.53125 C 602.570312 2105.359375 629.597656 2137.601562 657.164062 2164.75 C 680.78125 2188 707.003906 2207.96875 733.539062 2227.839844 C 793.371094 2272.648438 859.050781 2302.78125 927.121094 2332.90625 C 972.855469 2353.15625 1016.929688 2374.90625 1065.121094 2389.21875 C 1067.511719 2389.929688 1070.03125 2388.5625 1070.738281 2386.175781 C 1071.449219 2383.785156 1070.078125 2381.265625 1067.691406 2380.554688 "/>
<g clip-path="url(#clip-4)">
<path fill-rule="evenodd"   fill-opacity="1" d="M 1297.898438 3305.636719 L 1316.089844 3305.636719 C 1275.761719 2962.820312 1214.230469 2605.761719 1053.738281 2300.308594 C 880.839844 1971.21875 601.898438 1704.511719 489.085938 1344.578125 C 487.59375 1339.820312 482.519531 1337.171875 477.761719 1338.660156 C 473.007812 1340.148438 470.351562 1345.230469 471.84375 1349.988281 C 584.976562 1710.949219 864.34375 1978.671875 1037.75 2308.710938 C 1196.890625 2611.59375 1257.859375 2965.597656 1297.898438 3305.636719 "/>
</g>
<path fill-rule="evenodd"   fill-opacity="1" d="M 1368.789062 862.410156 C 1375.941406 885.070312 1377.691406 912.558594 1379.710938 932.441406 C 1390.121094 1034.578125 1369.121094 1135.058594 1334.351562 1230.828125 C 1308.941406 1300.839844 1280.589844 1368.941406 1239.910156 1431.601562 C 1222.289062 1458.730469 1202.46875 1479.210938 1184.820312 1500.851562 C 1166.238281 1523.648438 1149.988281 1547.691406 1140.46875 1581.058594 C 1139.109375 1585.859375 1141.890625 1590.859375 1146.679688 1592.230469 C 1151.480469 1593.589844 1156.480469 1590.808594 1157.851562 1586.019531 C 1166.609375 1555.300781 1181.71875 1533.25 1198.828125 1512.269531 C 1216.871094 1490.148438 1237.058594 1469.171875 1255.058594 1441.449219 C 1296.5 1377.621094 1325.449219 1308.300781 1351.339844 1237 C 1387.03125 1138.660156 1408.378906 1035.480469 1397.691406 930.609375 C 1394.539062 899.648438 1390.660156 852.21875 1371.011719 826.550781 C 1368.351562 823.078125 1365.398438 822.699219 1363.671875 822.640625 C 1360.640625 822.539062 1357.730469 823.609375 1355.601562 826.839844 C 1354.980469 827.789062 1354.140625 829.519531 1353.921875 831.980469 C 1353.761719 833.710938 1354.101562 837.121094 1353.878906 838.699219 C 1353.179688 843.789062 1352.441406 848.859375 1351.71875 853.941406 C 1349.539062 869.5 1347.628906 884.96875 1344.359375 900.371094 C 1333.679688 950.679688 1314.460938 994.921875 1284.960938 1036.96875 C 1245.460938 1093.28125 1199.589844 1148.800781 1174.710938 1213.550781 C 1136.378906 1313.308594 1132.539062 1434.109375 1125.050781 1539.808594 C 1124.691406 1544.789062 1128.441406 1549.109375 1133.421875 1549.460938 C 1138.390625 1549.820312 1142.71875 1546.070312 1143.070312 1541.089844 C 1150.449219 1437.089844 1153.859375 1318.179688 1191.578125 1220.03125 C 1215.929688 1156.648438 1261.089844 1102.46875 1299.75 1047.339844 C 1330.679688 1003.25 1350.839844 956.871094 1362.03125 904.121094 C 1364.980469 890.28125 1366.859375 876.378906 1368.789062 862.410156 "/>
<path fill-rule="evenodd"   fill-opacity="1" d="M 920.359375 1425.480469 L 920.921875 1427.390625 C 921.40625 1429.039062 922.328125 1430.441406 923.515625 1431.519531 C 924.261719 1432.929688 925.015625 1434.328125 925.773438 1435.730469 C 981.847656 1539.140625 1065.941406 1624.109375 1123.039062 1727.140625 C 1173.871094 1818.878906 1201.691406 1921.550781 1213.058594 2024.558594 C 1213.609375 2029.511719 1218.070312 2033.089844 1223.03125 2032.539062 C 1227.988281 2032 1231.558594 2027.53125 1231.019531 2022.570312 C 1219.378906 1917.210938 1190.839844 1812.21875 1138.839844 1718.390625 C 1081.769531 1615.390625 997.703125 1530.480469 941.65625 1427.121094 C 940.148438 1424.328125 938.667969 1421.539062 937.214844 1418.730469 C 927.800781 1386.230469 922 1355.011719 928.269531 1320.78125 C 931.503906 1303.148438 938.195312 1283.519531 941.410156 1264.058594 C 944.980469 1242.441406 944.292969 1221.039062 932.390625 1202.179688 C 926.121094 1192.230469 920.464844 1186.308594 915.710938 1183.21875 C 910.796875 1180.019531 906.273438 1179.230469 902.289062 1179.761719 C 896.191406 1180.589844 890.558594 1184.921875 886.507812 1192.589844 C 876.835938 1210.921875 875.097656 1252.390625 875.261719 1260.929688 C 876.382812 1318.691406 894.132812 1374.421875 920.359375 1425.480469 Z M 904.773438 1197.851562 C 904.367188 1198.28125 903.566406 1199.171875 903.136719 1199.890625 C 901.582031 1202.421875 900.34375 1205.738281 899.269531 1209.460938 C 894.011719 1227.589844 893.207031 1254.261719 893.328125 1260.578125 C 893.898438 1290.101562 899.078125 1319.050781 907.613281 1347.050781 C 907.753906 1337.378906 908.660156 1327.570312 910.5 1317.53125 C 913.714844 1299.988281 920.382812 1280.46875 923.578125 1261.121094 C 926.421875 1243.921875 926.570312 1226.820312 917.109375 1211.808594 C 913.902344 1206.730469 911.03125 1202.988281 908.378906 1200.429688 C 907.199219 1199.289062 905.457031 1198.238281 904.773438 1197.851562 "/>
<path fill-rule="evenodd"   fill-opacity="1" d="M 1148 1566.078125 C 1170.960938 1479.519531 1207.839844 1399.820312 1242.671875 1317.699219 C 1270.910156 1251.109375 1293.261719 1182.101562 1318.011719 1114.199219 C 1349.179688 1028.691406 1383.460938 938.03125 1373.160156 844.871094 C 1372.878906 842.390625 1370.648438 840.601562 1368.171875 840.878906 C 1365.691406 841.148438 1363.898438 843.378906 1364.171875 845.859375 C 1374.320312 937.628906 1340.230469 1026.871094 1309.519531 1111.101562 C 1284.828125 1178.859375 1262.53125 1247.730469 1234.351562 1314.171875 C 1199.359375 1396.691406 1162.339844 1476.789062 1139.269531 1563.761719 C 1138.628906 1566.171875 1140.058594 1568.648438 1142.46875 1569.289062 C 1144.890625 1569.929688 1147.359375 1568.488281 1148 1566.078125 "/>
<path fill-rule="evenodd"   fill-opacity="1" d="M 1081.410156 640.359375 C 1054.429688 623.890625 1033.648438 604.679688 1015.421875 578.851562 C 1005.730469 565.128906 998.703125 550.359375 993.539062 534.390625 C 990.132812 523.859375 987.621094 512.941406 986.816406 501.878906 C 986.273438 494.441406 986.324219 486.738281 987.269531 479.328125 C 987.925781 474.230469 988.917969 469.269531 990.773438 464.46875 C 992.195312 460.78125 994.140625 457.308594 996.421875 454.089844 C 1009.589844 435.519531 1027.441406 450.589844 1045.148438 448.550781 C 1058.980469 446.960938 1071.46875 439.121094 1085.460938 437.859375 C 1095.011719 437 1103.449219 441.671875 1112.808594 442.171875 C 1135.820312 443.371094 1161.570312 427.761719 1182.359375 443.980469 C 1202.820312 459.929688 1198.640625 505.390625 1191.988281 526.359375 C 1184.730469 549.28125 1166.988281 565.828125 1152.949219 584.589844 C 1143.460938 597.28125 1136.519531 613.339844 1124.308594 623.769531 C 1115.539062 631.25 1092.121094 636.351562 1081.410156 640.359375 "/>
<path fill-rule="evenodd"   fill-opacity="1" d="M 1078.339844 474.679688 C 1061.511719 415.488281 1048.53125 355.738281 1033.019531 296.191406 C 1019.480469 244.171875 1000.269531 189.039062 1004.558594 134.578125 C 1005.21875 126.261719 1006.140625 118.859375 1007.621094 110.621094 C 1011.378906 89.910156 1021.351562 61.660156 1038.261719 43.128906 C 1048.96875 31.398438 1062.519531 23.628906 1079.191406 24.929688 C 1106.230469 27.039062 1122.648438 45.480469 1132.5 68.480469 C 1142.761719 92.480469 1145.941406 121.480469 1145.960938 143.640625 C 1146.019531 212.488281 1131.960938 279.609375 1116.011719 346.21875 C 1103.070312 400.230469 1089.648438 453.449219 1074.441406 506.839844 C 1073.75 509.238281 1075.140625 511.738281 1077.539062 512.429688 C 1079.941406 513.109375 1082.441406 511.71875 1083.121094 509.320312 C 1098.371094 455.800781 1111.828125 402.460938 1124.789062 348.328125 C 1140.910156 281.019531 1155.050781 213.191406 1154.988281 143.628906 C 1154.96875 115.691406 1149.988281 77.449219 1133.289062 50.308594 C 1121.699219 31.46875 1104.589844 17.851562 1079.898438 15.929688 C 1060.28125 14.390625 1044.191406 23.238281 1031.589844 37.039062 C 1013.539062 56.820312 1002.738281 86.910156 998.734375 109.011719 C 997.191406 117.558594 996.238281 125.230469 995.554688 133.871094 C 991.179688 189.320312 1010.480469 245.5 1024.28125 298.46875 C 1039.808594 358.078125 1052.800781 417.898438 1069.648438 477.160156 C 1070.339844 479.558594 1072.839844 480.949219 1075.238281 480.269531 C 1077.628906 479.578125 1079.03125 477.078125 1078.339844 474.679688 "/>
<path fill-rule="evenodd"   fill-opacity="1" d="M 1122.460938 469.199219 C 1141.730469 401.621094 1160.398438 333.53125 1182.210938 266.71875 C 1195.359375 226.441406 1215.011719 186.230469 1217.839844 143.320312 C 1219.761719 114.109375 1214.960938 82.21875 1196.25 58.660156 C 1187.449219 47.589844 1175.601562 41.679688 1164.089844 41.550781 C 1152.351562 41.410156 1140.820312 47.160156 1132.96875 59.96875 C 1131.671875 62.089844 1132.339844 64.878906 1134.460938 66.179688 C 1136.589844 67.480469 1139.378906 66.808594 1140.679688 64.691406 C 1146.589844 55.039062 1155.140625 50.480469 1163.988281 50.578125 C 1173.039062 50.679688 1182.25 55.570312 1189.171875 64.28125 C 1206.5 86.089844 1210.601562 115.691406 1208.820312 142.730469 C 1206.039062 184.890625 1186.53125 224.339844 1173.621094 263.921875 C 1151.78125 330.839844 1133.078125 399.03125 1113.769531 466.71875 C 1113.078125 469.121094 1114.480469 471.621094 1116.871094 472.300781 C 1119.269531 472.980469 1121.769531 471.589844 1122.460938 469.199219 "/>
<path fill-rule="evenodd"   fill-opacity="1" d="M 1138.179688 465.570312 C 1188.058594 371.179688 1251.558594 274.101562 1264.710938 166.070312 C 1268.28125 136.789062 1268.421875 103.609375 1253.140625 77.21875 C 1241.761719 57.558594 1215.660156 49.75 1197.871094 65.828125 C 1196.019531 67.5 1195.878906 70.359375 1197.550781 72.210938 C 1199.21875 74.058594 1202.078125 74.199219 1203.929688 72.53125 C 1217.289062 60.449219 1236.761719 66.980469 1245.320312 81.75 C 1259.621094 106.449219 1259.078125 137.558594 1255.75 164.980469 C 1242.71875 271.921875 1179.578125 367.898438 1130.191406 461.351562 C 1129.03125 463.550781 1129.878906 466.289062 1132.078125 467.460938 C 1134.28125 468.621094 1137.019531 467.78125 1138.179688 465.570312 "/>
<path fill-rule="evenodd"   fill-opacity="1" d="M 1165.679688 467.171875 C 1201.300781 408.691406 1241.148438 352.449219 1271.761719 290.96875 C 1291.609375 251.121094 1304.671875 206.121094 1315.328125 162.980469 C 1321.738281 137.050781 1325.539062 105.628906 1313.121094 80.78125 C 1304.328125 63.199219 1288.140625 53.398438 1272.660156 54.339844 C 1262.140625 54.980469 1251.789062 60.480469 1244.109375 72.160156 C 1242.738281 74.25 1243.328125 77.050781 1245.410156 78.421875 C 1247.488281 79.789062 1250.289062 79.210938 1251.671875 77.121094 C 1257.488281 68.25 1265.21875 63.839844 1273.210938 63.359375 C 1285.5 62.601562 1298.050781 70.859375 1305.03125 84.820312 C 1316.519531 107.789062 1312.480469 136.839844 1306.558594 160.820312 C 1296.050781 203.320312 1283.230469 247.671875 1263.679688 286.941406 C 1233.179688 348.191406 1193.460938 404.210938 1157.960938 462.46875 C 1156.671875 464.601562 1157.351562 467.378906 1159.46875 468.679688 C 1161.601562 469.980469 1164.390625 469.300781 1165.679688 467.171875 "/>
<path fill-rule="evenodd"   fill-opacity="1" d="M 1178.46875 471.871094 C 1206.011719 439.378906 1230.808594 404.949219 1257.589844 371.878906 C 1293.808594 327.148438 1332.351562 280.308594 1349.429688 224.238281 C 1355.089844 205.640625 1360.269531 174.558594 1354.808594 149.609375 C 1350.941406 131.898438 1341.789062 117.261719 1324.539062 111.21875 C 1322.191406 110.398438 1319.609375 111.640625 1318.789062 113.988281 C 1317.96875 116.339844 1319.210938 118.921875 1321.558594 119.75 C 1335.710938 124.699219 1342.808594 137.011719 1345.988281 151.539062 C 1351.109375 174.96875 1346.101562 204.140625 1340.78125 221.601562 C 1324.039062 276.558594 1286.070312 322.359375 1250.570312 366.191406 C 1223.828125 399.210938 1199.078125 433.589844 1171.578125 466.019531 C 1169.96875 467.929688 1170.210938 470.78125 1172.109375 472.390625 C 1174.011719 474 1176.859375 473.769531 1178.46875 471.871094 "/>
<path fill-rule="evenodd"   fill-opacity="1" d="M 1053.96875 471.011719 C 1036.421875 414.980469 1015.191406 360.988281 989.238281 308.328125 C 965.441406 260.050781 936.296875 213.410156 925.867188 159.71875 C 921.65625 138.078125 920.644531 112.78125 932.792969 93.320312 C 940.535156 80.910156 950.371094 74.851562 960.5 74 C 975.921875 72.710938 991.527344 83.199219 1000.648438 99.75 C 1001.859375 101.929688 1004.609375 102.71875 1006.789062 101.519531 C 1008.96875 100.308594 1009.769531 97.558594 1008.558594 95.378906 C 997.5625 75.441406 978.335938 63.441406 959.746094 65 C 947.199219 66.050781 934.722656 73.160156 925.128906 88.539062 C 911.785156 109.921875 912.375 137.660156 916.996094 161.449219 C 927.582031 215.929688 956.984375 263.320312 981.136719 312.320312 C 1006.878906 364.558594 1027.941406 418.121094 1045.351562 473.71875 C 1046.089844 476.089844 1048.628906 477.421875 1051.011719 476.671875 C 1053.390625 475.929688 1054.710938 473.390625 1053.96875 471.011719 "/>
<path fill-rule="evenodd"   fill-opacity="1" d="M 1025.25 464.898438 C 1000.78125 425.308594 973.277344 387.589844 943.675781 351.648438 C 906.976562 307.070312 865.675781 262.71875 850.933594 205.25 C 843.464844 176.128906 845.085938 145.050781 860.984375 118.949219 C 873.328125 98.679688 898.128906 92.621094 915.585938 109.148438 C 917.398438 110.871094 920.257812 110.78125 921.972656 108.980469 C 923.6875 107.160156 923.609375 104.300781 921.800781 102.589844 C 899.925781 81.878906 868.738281 88.859375 853.269531 114.25 C 836.082031 142.46875 834.109375 176.019531 842.183594 207.5 C 857.257812 266.25 899.171875 311.808594 936.699219 357.390625 C 966.039062 393.019531 993.308594 430.398438 1017.570312 469.648438 C 1018.878906 471.769531 1021.660156 472.429688 1023.78125 471.121094 C 1025.910156 469.808594 1026.558594 467.019531 1025.25 464.898438 "/>
<path fill-rule="evenodd"   fill-opacity="1" d="M 1008.980469 471.71875 C 982.984375 443.140625 958.855469 413.371094 930.835938 386.628906 C 910.125 366.871094 886.875 349.429688 866.777344 329.128906 C 845.074219 307.210938 828.445312 281.109375 815.011719 253.46875 C 802.402344 227.539062 796.601562 197.550781 807.695312 170.089844 C 813.472656 155.789062 825.605469 144.421875 840.726562 152.839844 C 842.90625 154.050781 845.660156 153.269531 846.871094 151.089844 C 848.082031 148.910156 847.300781 146.160156 845.121094 144.949219 C 824.546875 133.480469 807.175781 147.25 799.316406 166.710938 C 787.257812 196.570312 793.175781 229.21875 806.886719 257.421875 C 820.753906 285.949219 837.953125 312.859375 860.355469 335.488281 C 880.515625 355.851562 903.828125 373.351562 924.59375 393.171875 C 952.46875 419.761719 976.445312 449.378906 1002.289062 477.800781 C 1003.96875 479.640625 1006.828125 479.78125 1008.671875 478.101562 C 1010.519531 476.421875 1010.648438 473.558594 1008.980469 471.71875 "/>
<path fill-rule="evenodd"   fill-opacity="1" d="M 964.703125 70.460938 C 969.964844 58.558594 976.152344 46.761719 986.753906 38.75 C 998.882812 29.558594 1017.820312 32.300781 1027.109375 44.511719 C 1028.621094 46.5 1031.460938 46.878906 1033.441406 45.371094 C 1035.421875 43.859375 1035.808594 41.03125 1034.300781 39.039062 C 1022.101562 23.011719 997.234375 19.480469 981.300781 31.539062 C 969.464844 40.488281 962.316406 53.511719 956.4375 66.808594 C 955.433594 69.089844 956.464844 71.761719 958.746094 72.769531 C 961.023438 73.78125 963.699219 72.738281 964.703125 70.460938 "/>
<path fill-rule="evenodd"   fill-opacity="1" d="M 878.183594 99.71875 C 880.585938 90.050781 883.589844 79.78125 891.308594 72.929688 C 906.21875 59.710938 924.425781 68.691406 933.421875 83.28125 C 934.726562 85.398438 937.515625 86.070312 939.636719 84.761719 C 941.761719 83.449219 942.421875 80.660156 941.109375 78.539062 C 929.257812 59.308594 904.964844 48.75 885.316406 66.171875 C 876.214844 74.238281 872.246094 86.140625 869.414062 97.539062 C 868.8125 99.960938 870.289062 102.410156 872.707031 103.011719 C 875.125 103.609375 877.582031 102.140625 878.183594 99.71875 "/>
<path fill-rule="evenodd"   fill-opacity="1" d="M 920.007812 65.25 C 923.320312 56 927.1875 46.46875 934.167969 39.320312 C 947.042969 26.140625 963.644531 28.191406 977.042969 38.859375 C 978.996094 40.410156 981.839844 40.089844 983.390625 38.140625 C 984.945312 36.191406 984.621094 33.339844 982.671875 31.789062 C 965.488281 18.109375 944.214844 16.109375 927.707031 33.011719 C 919.8125 41.089844 915.25 51.75 911.503906 62.199219 C 910.664062 64.539062 911.882812 67.128906 914.230469 67.96875 C 916.578125 68.808594 919.164062 67.589844 920.007812 65.25 "/>
<path fill-rule="evenodd"   fill-opacity="1" d="M 1098.679688 26.421875 C 1103.648438 20.191406 1108.980469 14.160156 1116.601562 11.269531 C 1138.960938 2.789062 1157.109375 22.691406 1158.320312 44 C 1158.460938 46.488281 1160.601562 48.390625 1163.089844 48.25 C 1165.578125 48.109375 1167.480469 45.96875 1167.339844 43.480469 C 1165.789062 16.328125 1141.878906 -7.980469 1113.390625 2.820312 C 1104.230469 6.300781 1097.601562 13.289062 1091.609375 20.78125 C 1090.058594 22.730469 1090.378906 25.570312 1092.328125 27.128906 C 1094.269531 28.691406 1097.121094 28.371094 1098.679688 26.421875 "/>
<path fill-rule="evenodd"   fill-opacity="1" d="M 1176.019531 48.820312 C 1183.351562 39.519531 1192.808594 30.660156 1205.109375 29.351562 C 1214.640625 28.351562 1222.25 33.191406 1227.5 40.25 C 1233.101562 47.789062 1236.101562 57.839844 1235.910156 66.800781 C 1235.851562 69.289062 1237.828125 71.359375 1240.328125 71.410156 C 1242.820312 71.46875 1244.878906 69.488281 1244.941406 67 C 1245.179688 56.148438 1241.53125 43.988281 1234.75 34.871094 C 1227.621094 25.261719 1217.121094 19 1204.160156 20.371094 C 1189.390625 21.929688 1177.710938 32.070312 1168.921875 43.230469 C 1167.378906 45.179688 1167.71875 48.03125 1169.679688 49.570312 C 1171.628906 51.109375 1174.480469 50.78125 1176.019531 48.820312 "/>
<path fill-rule="evenodd"   fill-opacity="1" d="M 1238.789062 48.609375 C 1245.179688 45.199219 1251.519531 44.511719 1256.828125 46.558594 C 1262.089844 48.589844 1266.199219 53.28125 1268.390625 60.109375 C 1269.148438 62.488281 1271.699219 63.800781 1274.078125 63.039062 C 1276.449219 62.28125 1277.761719 59.730469 1277 57.351562 C 1273.839844 47.53125 1267.640625 41.050781 1260.078125 38.128906 C 1252.558594 35.230469 1243.558594 35.820312 1234.53125 40.640625 C 1232.328125 41.820312 1231.5 44.558594 1232.679688 46.761719 C 1233.851562 48.960938 1236.589844 49.789062 1238.789062 48.609375 "/>
<path fill-rule="evenodd"   fill-opacity="1" d="M 1061.949219 291.96875 C 1060.128906 349.820312 1066.878906 408.300781 1077.601562 465.128906 C 1078.058594 467.578125 1080.421875 469.191406 1082.871094 468.730469 C 1085.328125 468.269531 1086.941406 465.898438 1086.480469 463.449219 C 1075.871094 407.269531 1069.179688 349.449219 1070.980469 292.25 C 1071.058594 289.761719 1069.101562 287.679688 1066.609375 287.601562 C 1064.121094 287.519531 1062.03125 289.480469 1061.949219 291.96875 "/>
<path fill-rule="evenodd"   fill-opacity="1" d="M 1083.339844 334.199219 C 1083.140625 376.53125 1083.691406 419.03125 1082.429688 461.328125 C 1082.359375 463.820312 1084.320312 465.910156 1086.808594 465.980469 C 1089.300781 466.050781 1091.390625 464.089844 1091.460938 461.601562 C 1092.71875 419.21875 1092.171875 376.640625 1092.378906 334.25 C 1092.390625 331.75 1090.378906 329.71875 1087.878906 329.699219 C 1085.390625 329.691406 1083.351562 331.699219 1083.339844 334.199219 "/>
<path fill-rule="evenodd"   fill-opacity="1" d="M 1125.941406 357.640625 C 1118.890625 391.210938 1109.980469 423.671875 1100.089844 456.46875 C 1099.371094 458.859375 1100.71875 461.378906 1103.109375 462.101562 C 1105.5 462.820312 1108.019531 461.460938 1108.738281 459.078125 C 1118.710938 426.03125 1127.679688 393.328125 1134.78125 359.5 C 1135.289062 357.058594 1133.730469 354.660156 1131.289062 354.148438 C 1128.851562 353.640625 1126.460938 355.199219 1125.941406 357.640625 "/>
<path fill-rule="evenodd"   fill-opacity="1" d="M 1179.238281 305.238281 C 1168.03125 335.96875 1154.96875 366.011719 1143.789062 396.71875 C 1136.171875 417.671875 1130.539062 439.601562 1122.160156 460.25 C 1121.230469 462.558594 1122.339844 465.199219 1124.648438 466.140625 C 1126.960938 467.070312 1129.601562 465.949219 1130.539062 463.640625 C 1138.949219 442.890625 1144.621094 420.871094 1152.28125 399.820312 C 1163.460938 369.101562 1176.519531 339.058594 1187.71875 308.339844 C 1188.578125 306 1187.371094 303.398438 1185.03125 302.550781 C 1182.691406 301.699219 1180.089844 302.898438 1179.238281 305.238281 "/>
<path fill-rule="evenodd"   fill-opacity="1" d="M 1214.558594 336.628906 C 1199.121094 376.980469 1178.488281 414.171875 1153.898438 449.609375 C 1152.480469 451.660156 1152.988281 454.46875 1155.039062 455.890625 C 1157.089844 457.320312 1159.910156 456.808594 1161.328125 454.761719 C 1186.328125 418.71875 1207.289062 380.890625 1222.988281 339.859375 C 1223.878906 337.53125 1222.71875 334.910156 1220.390625 334.019531 C 1218.058594 333.128906 1215.441406 334.300781 1214.558594 336.628906 "/>
<path fill-rule="evenodd"   fill-opacity="1" d="M 1230.960938 373.230469 C 1209.320312 400.578125 1190.878906 430.488281 1168.421875 457.171875 C 1166.808594 459.078125 1167.058594 461.929688 1168.960938 463.539062 C 1170.871094 465.140625 1173.71875 464.898438 1175.328125 462.988281 C 1197.851562 436.238281 1216.359375 406.261719 1238.039062 378.839844 C 1239.589844 376.890625 1239.261719 374.039062 1237.300781 372.5 C 1235.351562 370.949219 1232.5 371.28125 1230.960938 373.230469 "/>
<path fill-rule="evenodd"   fill-opacity="1" d="M 1016.640625 341.820312 C 1030.429688 382.828125 1043.589844 423.96875 1057.808594 464.820312 C 1058.628906 467.179688 1061.210938 468.421875 1063.558594 467.601562 C 1065.921875 466.78125 1067.171875 464.210938 1066.351562 461.859375 C 1052.140625 421.03125 1038.980469 379.921875 1025.210938 338.941406 C 1024.410156 336.578125 1021.851562 335.308594 1019.480469 336.101562 C 1017.121094 336.890625 1015.851562 339.449219 1016.640625 341.820312 "/>
<path fill-rule="evenodd"   fill-opacity="1" d="M 973.1875 349.710938 C 995.574219 387.320312 1011.011719 427.941406 1028.050781 468.078125 C 1029.019531 470.371094 1031.679688 471.449219 1033.96875 470.46875 C 1036.269531 469.5 1037.339844 466.839844 1036.359375 464.550781 C 1019.160156 424.03125 1003.539062 383.050781 980.953125 345.089844 C 979.679688 342.949219 976.902344 342.238281 974.761719 343.519531 C 972.621094 344.789062 971.914062 347.570312 973.1875 349.710938 "/>
<path fill-rule="evenodd"   fill-opacity="1" d="M 940.835938 389.160156 C 965.246094 419.351562 989.050781 450.140625 1012.71875 480.929688 C 1014.230469 482.910156 1017.070312 483.28125 1019.050781 481.761719 C 1021.03125 480.238281 1021.398438 477.398438 1019.878906 475.429688 C 996.171875 444.578125 972.320312 413.730469 947.863281 383.480469 C 946.289062 381.539062 943.445312 381.25 941.511719 382.808594 C 939.570312 384.378906 939.269531 387.21875 940.835938 389.160156 "/>
<path fill-rule="evenodd"   fill-opacity="1" d="M 1471.429688 1636.539062 C 1432.039062 1613.898438 1401.519531 1592.898438 1382.609375 1549.539062 C 1379.078125 1541.449219 1376.269531 1533.058594 1373.671875 1524.621094 C 1363.820312 1492.621094 1344.589844 1408.261719 1395.640625 1398.421875 C 1418.109375 1394.078125 1432.671875 1412.589844 1453.5 1410.601562 C 1464.558594 1409.539062 1475.839844 1405.589844 1486.960938 1405.839844 C 1495.648438 1406.039062 1502.011719 1409.878906 1511.191406 1408.988281 C 1529.441406 1407.199219 1548.53125 1396.351562 1564.621094 1410.960938 C 1578.570312 1423.628906 1598.679688 1453.171875 1602.121094 1471.171875 C 1615.488281 1541 1549.03125 1638.519531 1471.429688 1636.539062 "/>
<path fill-rule="evenodd"   fill-opacity="1" d="M 1466.871094 1429.441406 C 1460.800781 1389.25 1457.921875 1348.75 1452.699219 1308.460938 C 1444.160156 1242.570312 1434.121094 1179.589844 1438.878906 1112.738281 C 1439.46875 1104.558594 1440.398438 1096.398438 1441.679688 1088.300781 C 1442.410156 1083.699219 1443.570312 1077.550781 1444.589844 1072.980469 C 1445.828125 1067.421875 1446.671875 1064.21875 1448.328125 1058.859375 C 1450.800781 1050.878906 1456.328125 1037.320312 1464.511719 1029.488281 C 1468.980469 1025.210938 1474.328125 1022.738281 1480.519531 1025.351562 C 1492.519531 1030.398438 1497.929688 1044.921875 1501.128906 1056.519531 C 1508.238281 1082.398438 1506.539062 1110.351562 1505.191406 1136.859375 C 1503.378906 1172.320312 1496.679688 1206.898438 1492.828125 1242.121094 C 1484.980469 1313.890625 1477.679688 1386.820312 1475.839844 1459.039062 C 1475.78125 1461.539062 1477.75 1463.609375 1480.238281 1463.671875 C 1482.730469 1463.738281 1484.808594 1461.769531 1484.871094 1459.269531 C 1486.699219 1387.300781 1493.988281 1314.621094 1501.808594 1243.101562 C 1505.679688 1207.710938 1512.390625 1172.960938 1514.210938 1137.328125 C 1515.609375 1109.871094 1517.210938 1080.929688 1509.839844 1054.128906 C 1505.980469 1040.101562 1498.539062 1023.128906 1484.03125 1017.019531 C 1474.128906 1012.851562 1465.421875 1016.121094 1458.261719 1022.96875 C 1448.96875 1031.851562 1442.5 1047.140625 1439.699219 1056.191406 C 1437.949219 1061.820312 1437.070312 1065.171875 1435.769531 1071.011719 C 1434.710938 1075.75 1433.511719 1082.121094 1432.761719 1086.890625 C 1431.429688 1095.25 1430.480469 1103.660156 1429.871094 1112.101562 C 1425.058594 1179.558594 1435.121094 1243.128906 1443.738281 1309.621094 C 1448.96875 1349.96875 1451.859375 1390.539062 1457.941406 1430.800781 C 1458.308594 1433.261719 1460.621094 1434.960938 1463.078125 1434.589844 C 1465.550781 1434.21875 1467.25 1431.910156 1466.871094 1429.441406 "/>
<path fill-rule="evenodd"   fill-opacity="1" d="M 1437.949219 1426.640625 C 1432.339844 1387.960938 1423.839844 1349.75 1418.53125 1311.039062 C 1412.03125 1263.648438 1410.070312 1215.820312 1406.101562 1168.191406 C 1403.988281 1142.921875 1399.730469 1117.929688 1398.460938 1092.589844 C 1397.429688 1072.050781 1393.339844 1048.078125 1404.019531 1029.320312 C 1406.78125 1024.460938 1410.109375 1021.488281 1413.808594 1020.128906 C 1419.429688 1018.070312 1425.640625 1019.699219 1431.261719 1023.03125 C 1438.089844 1027.089844 1444.070312 1033.75 1447.25 1040.738281 C 1448.28125 1043.011719 1450.960938 1044.019531 1453.230469 1042.980469 C 1455.5 1041.949219 1456.5 1039.269531 1455.46875 1037 C 1445.289062 1014.609375 1412.460938 996.210938 1396.160156 1024.851562 C 1384.640625 1045.089844 1388.328125 1070.878906 1389.441406 1093.039062 C 1390.710938 1118.480469 1394.980469 1143.578125 1397.101562 1168.941406 C 1401.078125 1216.730469 1403.058594 1264.71875 1409.578125 1312.261719 C 1414.890625 1351 1423.390625 1389.238281 1429.011719 1427.941406 C 1429.371094 1430.410156 1431.660156 1432.121094 1434.128906 1431.761719 C 1436.601562 1431.398438 1438.308594 1429.109375 1437.949219 1426.640625 "/>
<path fill-rule="evenodd"   fill-opacity="1" d="M 1409.851562 1412.519531 C 1388.410156 1354.910156 1373.808594 1291.601562 1370.28125 1229.980469 C 1369.140625 1210.019531 1365.929688 1189.691406 1369.960938 1169.878906 C 1370.449219 1167.429688 1368.871094 1165.039062 1366.429688 1164.550781 C 1363.988281 1164.050781 1361.601562 1165.628906 1361.101562 1168.078125 C 1356.921875 1188.648438 1360.078125 1209.769531 1361.261719 1230.5 C 1364.851562 1293.011719 1379.628906 1357.230469 1401.378906 1415.679688 C 1402.25 1418.011719 1404.851562 1419.210938 1407.191406 1418.339844 C 1409.53125 1417.46875 1410.71875 1414.859375 1409.851562 1412.519531 "/>
<path fill-rule="evenodd"   fill-opacity="1" d="M 1389.238281 1423.921875 C 1364.71875 1363.789062 1341.488281 1299.019531 1345.871094 1233.019531 C 1346.039062 1230.539062 1344.148438 1228.378906 1341.660156 1228.21875 C 1339.179688 1228.050781 1337.019531 1229.929688 1336.859375 1232.429688 C 1332.378906 1299.789062 1355.839844 1365.960938 1380.871094 1427.339844 C 1381.820312 1429.640625 1384.449219 1430.761719 1386.761719 1429.808594 C 1389.070312 1428.871094 1390.179688 1426.230469 1389.238281 1423.921875 "/>
<path fill-rule="evenodd"   fill-opacity="1" d="M 1384.800781 1454.519531 C 1368.089844 1426.171875 1354.71875 1396.738281 1342.921875 1366.078125 C 1333.519531 1341.660156 1324.878906 1316.761719 1323.691406 1290.429688 C 1323.570312 1287.941406 1321.460938 1286.019531 1318.96875 1286.128906 C 1316.480469 1286.238281 1314.550781 1288.359375 1314.660156 1290.851562 C 1315.910156 1318.148438 1324.730469 1344 1334.488281 1369.320312 C 1346.46875 1400.460938 1360.058594 1430.328125 1377.019531 1459.109375 C 1378.28125 1461.261719 1381.050781 1461.96875 1383.199219 1460.710938 C 1385.351562 1459.441406 1386.070312 1456.671875 1384.800781 1454.519531 "/>
<path fill-rule="evenodd"   fill-opacity="1" d="M 1504.980469 1045.878906 C 1508.648438 1042.191406 1511.269531 1039.929688 1515.710938 1037.171875 C 1521.921875 1033.320312 1527.460938 1032.039062 1532.429688 1032.890625 C 1540.089844 1034.199219 1546.140625 1040.320312 1551.011719 1048.148438 C 1559.980469 1062.539062 1564.71875 1082.890625 1565.550781 1095.761719 C 1566.078125 1104.140625 1565.949219 1112.578125 1565.539062 1120.960938 C 1560.320312 1226.679688 1529.550781 1327.148438 1505.511719 1429.390625 C 1504.941406 1431.820312 1506.441406 1434.25 1508.871094 1434.820312 C 1511.300781 1435.398438 1513.738281 1433.890625 1514.308594 1431.460938 C 1538.480469 1328.679688 1569.320312 1227.679688 1574.558594 1121.410156 C 1574.988281 1112.679688 1575.121094 1103.898438 1574.558594 1095.179688 C 1573.480469 1078.269531 1566.019531 1049.609375 1552.011719 1034.519531 C 1546.839844 1028.949219 1540.789062 1025.160156 1533.960938 1023.988281 C 1527.148438 1022.820312 1519.460938 1024.210938 1510.949219 1029.5 C 1505.828125 1032.671875 1502.800781 1035.261719 1498.578125 1039.511719 C 1496.820312 1041.28125 1496.828125 1044.140625 1498.589844 1045.898438 C 1500.359375 1047.660156 1503.230469 1047.648438 1504.980469 1045.878906 "/>
<path fill-rule="evenodd"   fill-opacity="1" d="M 1539.039062 1430.570312 C 1549.011719 1390.679688 1561.808594 1351.519531 1572.230469 1311.738281 C 1581.398438 1276.730469 1588.441406 1241.140625 1597 1205.96875 C 1606.679688 1166.179688 1619.199219 1124.351562 1622.300781 1083.371094 C 1624.179688 1058.578125 1619.488281 1027.5 1602.710938 1008.011719 C 1596.980469 1001.351562 1590.691406 998.210938 1584.460938 997.449219 C 1578.230469 996.691406 1571.988281 998.351562 1566.238281 1001.691406 C 1555.578125 1007.898438 1546.710938 1020.050781 1543.351562 1031.539062 C 1542.660156 1033.929688 1544.03125 1036.441406 1546.429688 1037.140625 C 1548.820312 1037.828125 1551.328125 1036.460938 1552.03125 1034.070312 C 1554.78125 1024.628906 1562.03125 1014.601562 1570.789062 1009.5 C 1574.761719 1007.179688 1579.058594 1005.898438 1583.371094 1006.421875 C 1587.671875 1006.941406 1591.910156 1009.308594 1595.859375 1013.910156 C 1611.148438 1031.660156 1615.011719 1060.089844 1613.289062 1082.699219 C 1610.230469 1123.191406 1597.789062 1164.511719 1588.21875 1203.828125 C 1579.679688 1238.960938 1572.648438 1274.488281 1563.488281 1309.449219 C 1553.058594 1349.269531 1540.25 1388.460938 1530.269531 1428.378906 C 1529.671875 1430.800781 1531.140625 1433.25 1533.558594 1433.859375 C 1535.980469 1434.460938 1538.429688 1432.988281 1539.039062 1430.570312 "/>
<path fill-rule="evenodd"   fill-opacity="1" d="M 1619.371094 1062.660156 C 1633 1055.671875 1645.269531 1062.800781 1652.179688 1076.339844 C 1663.300781 1098.101562 1660.570312 1125.289062 1656.890625 1148.550781 C 1641.011719 1249.199219 1592.710938 1339.660156 1555.789062 1433.289062 C 1554.871094 1435.609375 1556.011719 1438.230469 1558.328125 1439.148438 C 1560.648438 1440.058594 1563.269531 1438.921875 1564.191406 1436.601562 C 1601.359375 1342.371094 1649.828125 1251.261719 1665.820312 1149.960938 C 1669.769531 1124.898438 1672.191406 1095.660156 1660.230469 1072.230469 C 1650.839844 1053.828125 1633.769531 1045.128906 1615.25 1054.621094 C 1613.03125 1055.761719 1612.160156 1058.480469 1613.289062 1060.699219 C 1614.429688 1062.921875 1617.160156 1063.800781 1619.371094 1062.660156 "/>
<path fill-rule="evenodd"   fill-opacity="1" d="M 1586.171875 1461 C 1601.300781 1425.890625 1616.390625 1390.839844 1633.558594 1356.648438 C 1664.078125 1295.871094 1697.679688 1235.609375 1710.699219 1168.019531 C 1715.199219 1144.671875 1715.378906 1112.070312 1702.128906 1091.101562 C 1693.28125 1077.089844 1674.46875 1067.699219 1658.769531 1076.269531 C 1656.589844 1077.46875 1655.78125 1080.210938 1656.96875 1082.398438 C 1658.171875 1084.589844 1660.910156 1085.390625 1663.101562 1084.199219 C 1674.578125 1077.929688 1688.019531 1085.679688 1694.5 1095.921875 C 1706.609375 1115.101562 1705.949219 1144.96875 1701.828125 1166.308594 C 1688.960938 1233.089844 1655.628906 1292.550781 1625.488281 1352.589844 C 1608.230469 1386.941406 1593.070312 1422.148438 1577.878906 1457.429688 C 1576.890625 1459.71875 1577.941406 1462.378906 1580.230469 1463.371094 C 1582.53125 1464.351562 1585.179688 1463.300781 1586.171875 1461 "/>
<path fill-rule="evenodd"   fill-opacity="1" d="M 1426.800781 1016.730469 C 1438.859375 1000.28125 1465.921875 1000.859375 1473.839844 1020.148438 C 1474.789062 1022.460938 1477.429688 1023.558594 1479.730469 1022.621094 C 1482.039062 1021.671875 1483.140625 1019.03125 1482.199219 1016.71875 C 1471.628906 990.988281 1435.589844 989.449219 1419.511719 1011.390625 C 1418.039062 1013.410156 1418.480469 1016.230469 1420.480469 1017.710938 C 1422.5 1019.179688 1425.320312 1018.75 1426.800781 1016.730469 "/>
<path fill-rule="evenodd"   fill-opacity="1" d="M 1482.921875 1019.421875 C 1486.320312 1007.628906 1490.039062 994.058594 1501.738281 987.910156 C 1513.75 981.601562 1524.210938 985.671875 1531.46875 993.921875 C 1539.289062 1002.800781 1543.648438 1016.261719 1542.730469 1027.761719 C 1542.53125 1030.25 1544.390625 1032.421875 1546.871094 1032.621094 C 1549.359375 1032.828125 1551.539062 1030.96875 1551.738281 1028.480469 C 1552.839844 1014.710938 1547.621094 998.589844 1538.25 987.949219 C 1528.308594 976.671875 1513.960938 971.28125 1497.53125 979.910156 C 1483.601562 987.238281 1478.289062 1002.871094 1474.238281 1016.910156 C 1473.539062 1019.308594 1474.929688 1021.808594 1477.328125 1022.511719 C 1479.71875 1023.199219 1482.230469 1021.808594 1482.921875 1019.421875 "/>
<path fill-rule="evenodd"   fill-opacity="1" d="M 1465.558594 1268.601562 C 1461.71875 1321.789062 1463.578125 1375.199219 1472.070312 1427.921875 C 1472.46875 1430.378906 1474.78125 1432.050781 1477.25 1431.660156 C 1479.710938 1431.261719 1481.378906 1428.941406 1480.988281 1426.480469 C 1472.609375 1374.449219 1470.78125 1321.738281 1474.570312 1269.25 C 1474.75 1266.769531 1472.878906 1264.601562 1470.390625 1264.421875 C 1467.898438 1264.238281 1465.738281 1266.109375 1465.558594 1268.601562 "/>
<path fill-rule="evenodd"   fill-opacity="1" d="M 1519.878906 1226.53125 C 1509.160156 1290.429688 1507.671875 1357.46875 1490.039062 1420.058594 C 1489.359375 1422.460938 1490.761719 1424.960938 1493.160156 1425.628906 C 1495.558594 1426.308594 1498.058594 1424.910156 1498.738281 1422.511719 C 1516.460938 1359.609375 1518.011719 1292.25 1528.789062 1228.03125 C 1529.199219 1225.570312 1527.539062 1223.238281 1525.078125 1222.828125 C 1522.621094 1222.410156 1520.289062 1224.070312 1519.878906 1226.53125 "/>
<path fill-rule="evenodd"   fill-opacity="1" d="M 1545.308594 1311.308594 C 1532.019531 1346.648438 1521.261719 1383.960938 1512.800781 1420.828125 C 1512.25 1423.261719 1513.769531 1425.691406 1516.199219 1426.238281 C 1518.628906 1426.800781 1521.050781 1425.28125 1521.609375 1422.851562 C 1529.96875 1386.371094 1540.621094 1349.449219 1553.769531 1314.480469 C 1554.648438 1312.148438 1553.460938 1309.539062 1551.128906 1308.671875 C 1548.800781 1307.789062 1546.191406 1308.96875 1545.308594 1311.308594 "/>
<path fill-rule="evenodd"   fill-opacity="1" d="M 1593.410156 1274.878906 C 1581.800781 1325.929688 1566.171875 1377.03125 1544.398438 1424.730469 C 1543.359375 1427 1544.359375 1429.691406 1546.628906 1430.71875 C 1548.898438 1431.75 1551.578125 1430.761719 1552.609375 1428.488281 C 1574.640625 1380.230469 1590.46875 1328.53125 1602.21875 1276.878906 C 1602.769531 1274.449219 1601.25 1272.03125 1598.820312 1271.46875 C 1596.390625 1270.921875 1593.960938 1272.441406 1593.410156 1274.878906 "/>
<path fill-rule="evenodd"   fill-opacity="1" d="M 1619.070312 1332.589844 C 1599.148438 1368.96875 1580.25 1405.929688 1561.578125 1442.960938 C 1560.460938 1445.191406 1561.359375 1447.910156 1563.578125 1449.03125 C 1565.808594 1450.148438 1568.519531 1449.25 1569.648438 1447.03125 C 1588.269531 1410.089844 1607.121094 1373.21875 1627 1336.929688 C 1628.191406 1334.75 1627.390625 1332 1625.210938 1330.800781 C 1623.019531 1329.601562 1620.269531 1330.410156 1619.070312 1332.589844 "/>
<path fill-rule="evenodd"   fill-opacity="1" d="M 1422.71875 1277.511719 C 1430.730469 1329.28125 1439.339844 1381.050781 1449.070312 1432.539062 C 1449.53125 1434.988281 1451.890625 1436.601562 1454.339844 1436.140625 C 1456.789062 1435.671875 1458.410156 1433.308594 1457.941406 1430.859375 C 1448.230469 1379.46875 1439.640625 1327.800781 1431.660156 1276.128906 C 1431.269531 1273.671875 1428.960938 1271.96875 1426.5 1272.351562 C 1424.039062 1272.738281 1422.339844 1275.039062 1422.71875 1277.511719 "/>
<path fill-rule="evenodd"   fill-opacity="1" d="M 1388.179688 1286.449219 C 1397.121094 1334.871094 1406.878906 1383.78125 1422.550781 1430.539062 C 1423.339844 1432.898438 1425.910156 1434.179688 1428.269531 1433.378906 C 1430.628906 1432.589844 1431.910156 1430.03125 1431.121094 1427.671875 C 1415.578125 1381.308594 1405.921875 1332.820312 1397.058594 1284.808594 C 1396.609375 1282.359375 1394.261719 1280.738281 1391.800781 1281.191406 C 1389.351562 1281.640625 1387.730469 1284 1388.179688 1286.449219 "/>
<path fill-rule="evenodd"   fill-opacity="1" d="M 1358.851562 1324.5 C 1365.148438 1358.859375 1376.839844 1393.128906 1390.28125 1425.371094 C 1391.238281 1427.671875 1393.878906 1428.761719 1396.179688 1427.800781 C 1398.488281 1426.839844 1399.578125 1424.199219 1398.609375 1421.898438 C 1385.429688 1390.238281 1373.921875 1356.601562 1367.738281 1322.871094 C 1367.289062 1320.421875 1364.929688 1318.789062 1362.480469 1319.238281 C 1360.03125 1319.691406 1358.398438 1322.050781 1358.851562 1324.5 "/>
<path fill-rule="evenodd"   fill-opacity="1" d="M 1338.171875 1352.921875 C 1351.730469 1381.691406 1363.710938 1411.191406 1377.621094 1439.800781 C 1378.710938 1442.039062 1381.421875 1442.980469 1383.660156 1441.890625 C 1385.898438 1440.800781 1386.839844 1438.089844 1385.738281 1435.851562 C 1371.851562 1407.269531 1359.890625 1377.800781 1346.339844 1349.070312 C 1345.28125 1346.808594 1342.589844 1345.851562 1340.328125 1346.910156 C 1338.078125 1347.96875 1337.109375 1350.660156 1338.171875 1352.921875 "/>
<path fill-rule="evenodd"   fill-opacity="1" d="M 1708.050781 1125.421875 C 1729.839844 1132.171875 1739.480469 1147.820312 1741.558594 1165.960938 C 1743.761719 1184.96875 1737.941406 1206.570312 1729.101562 1224.101562 C 1706.710938 1268.53125 1677.769531 1309.210938 1648.839844 1349.511719 C 1624.371094 1383.589844 1601.179688 1418.691406 1574.910156 1451.46875 C 1573.359375 1453.410156 1573.671875 1456.261719 1575.621094 1457.820312 C 1577.558594 1459.371094 1580.410156 1459.070312 1581.960938 1457.121094 C 1608.328125 1424.21875 1631.609375 1388.988281 1656.171875 1354.78125 C 1685.378906 1314.101562 1714.558594 1273.019531 1737.171875 1228.171875 C 1756.78125 1189.269531 1761.398438 1132.5 1710.71875 1116.789062 C 1708.339844 1116.050781 1705.808594 1117.378906 1705.070312 1119.761719 C 1704.328125 1122.140625 1705.660156 1124.679688 1708.050781 1125.421875 "/>
<path fill-rule="evenodd"   fill-opacity="1" d="M 1292.761719 1341.5 C 1308.808594 1372.601562 1325.519531 1407.410156 1352 1431.140625 C 1362.359375 1440.429688 1374.308594 1447.019531 1386.730469 1453.050781 C 1388.980469 1454.128906 1391.679688 1453.199219 1392.769531 1450.949219 C 1393.851562 1448.710938 1392.921875 1446 1390.671875 1444.921875 C 1379.011719 1439.261719 1367.75 1433.128906 1358.03125 1424.410156 C 1332.351562 1401.398438 1316.351562 1367.511719 1300.789062 1337.351562 C 1299.640625 1335.140625 1296.921875 1334.269531 1294.699219 1335.410156 C 1292.488281 1336.550781 1291.621094 1339.28125 1292.761719 1341.5 "/>
<path fill-rule="evenodd"   fill-opacity="1" d="M 589.828125 1592.5 C 544.441406 1593.941406 511.789062 1584.488281 475.984375 1554.800781 C 432.664062 1518.859375 371.523438 1445.601562 386.730469 1383.898438 C 390.542969 1368.449219 415.695312 1368.308594 426.023438 1356.628906 C 436.304688 1344.988281 444.269531 1327.019531 459.253906 1320.328125 C 471.6875 1314.789062 481.589844 1323.28125 493.1875 1315.960938 C 505.390625 1308.238281 518.160156 1288.238281 533.097656 1285.820312 C 542.566406 1284.28125 552.460938 1292.621094 562.539062 1292.300781 C 583.109375 1291.679688 603.609375 1287.488281 620.765625 1302.058594 C 665.195312 1339.78125 653.152344 1413.550781 642.703125 1463.460938 C 633.605469 1506.921875 615.597656 1556.449219 589.828125 1592.5 "/>
<path fill-rule="evenodd"   fill-opacity="1" d="M 463.539062 1357.269531 C 429.566406 1275.789062 373.230469 1210.449219 327.785156 1135.800781 C 296.585938 1084.570312 266.554688 1027.300781 268.675781 965.570312 C 269.136719 952.050781 269.96875 935.171875 278.359375 923.738281 C 287.433594 911.371094 300.414062 910.011719 313.601562 913.839844 C 335.230469 920.140625 357.480469 939.859375 367.257812 953.261719 C 394.789062 991.011719 404.910156 1039.78125 417.972656 1083.808594 C 445.257812 1175.71875 462.890625 1270.339844 489.894531 1362.359375 C 490.59375 1364.75 493.109375 1366.121094 495.5 1365.421875 C 497.894531 1364.71875 499.265625 1362.199219 498.566406 1359.808594 C 471.554688 1267.789062 453.917969 1173.160156 426.640625 1081.238281 C 413.285156 1036.25 402.691406 986.511719 374.558594 947.929688 C 363.929688 933.371094 339.648438 912.011719 316.125 905.171875 C 299.210938 900.25 282.710938 902.53125 271.074219 918.390625 C 261.648438 931.238281 260.167969 950.070312 259.648438 965.261719 C 257.464844 1028.75 287.980469 1087.800781 320.0625 1140.5 C 365.277344 1214.75 421.410156 1279.699219 455.199219 1360.75 C 456.160156 1363.050781 458.804688 1364.128906 461.105469 1363.171875 C 463.40625 1362.21875 464.5 1359.570312 463.539062 1357.269531 "/>
<path fill-rule="evenodd"   fill-opacity="1" d="M 336.40625 919.46875 C 345.152344 902.828125 358.902344 890.628906 374.441406 888.828125 C 384.585938 887.660156 395.363281 891.058594 405.863281 900.328125 C 425.515625 917.699219 435.664062 945.101562 444.816406 968.941406 C 474.84375 1047.230469 489.152344 1129.210938 499.292969 1212.109375 C 505.265625 1260.929688 507.222656 1310.289062 517.296875 1358.539062 C 517.808594 1360.980469 520.203125 1362.550781 522.644531 1362.039062 C 525.085938 1361.53125 526.652344 1359.128906 526.140625 1356.691406 C 516.117188 1308.691406 514.199219 1259.578125 508.261719 1211.019531 C 498.03125 1127.378906 483.539062 1044.679688 453.25 965.699219 C 443.613281 940.570312 432.558594 911.878906 411.847656 893.558594 C 399.050781 882.25 385.777344 878.429688 373.410156 879.859375 C 355.191406 881.96875 338.664062 895.761719 328.40625 915.269531 C 327.246094 917.46875 328.097656 920.210938 330.304688 921.371094 C 332.511719 922.53125 335.242188 921.679688 336.40625 919.46875 "/>
<path fill-rule="evenodd"   fill-opacity="1" d="M 425.316406 913.109375 C 431.386719 907.609375 437.265625 904.921875 442.945312 904.53125 C 451.53125 903.929688 459.429688 908.511719 466.433594 915.230469 C 479.238281 927.519531 488.941406 947.058594 493.519531 960.789062 C 496.214844 968.890625 498.363281 977.140625 500.664062 985.351562 C 521.925781 1061.21875 538.882812 1139.21875 549.003906 1217.390625 C 553.828125 1254.628906 555.375 1291.941406 558.890625 1329.261719 C 559.121094 1331.738281 561.328125 1333.558594 563.808594 1333.328125 C 566.292969 1333.101562 568.117188 1330.890625 567.886719 1328.410156 C 564.355469 1290.988281 562.800781 1253.570312 557.964844 1216.230469 C 547.789062 1137.628906 530.734375 1059.199219 509.363281 982.910156 C 507.023438 974.558594 504.832031 966.171875 502.089844 957.941406 C 497.136719 943.089844 486.535156 922 472.691406 908.71875 C 463.707031 900.089844 453.335938 894.75 442.320312 895.511719 C 434.929688 896.03125 427.148438 899.261719 419.246094 906.421875 C 417.398438 908.101562 417.257812 910.949219 418.9375 912.800781 C 420.613281 914.648438 423.46875 914.789062 425.316406 913.109375 "/>
<path fill-rule="evenodd"   fill-opacity="1" d="M 439.195312 901.5 C 440.660156 891.761719 443.605469 879.808594 448.613281 870.339844 C 452.597656 862.808594 457.773438 856.738281 465.007812 855.71875 C 469.851562 855.039062 475.425781 856.691406 481.96875 861.128906 C 486.066406 863.921875 489.722656 867.351562 493.027344 871.03125 C 512.59375 892.820312 521.8125 922.761719 530.109375 950.28125 C 547.285156 1007.238281 554.550781 1066.449219 565.597656 1124.738281 C 578.59375 1193.320312 593.453125 1261.519531 598.90625 1331.28125 C 599.101562 1333.761719 601.273438 1335.621094 603.761719 1335.421875 C 606.246094 1335.230469 608.105469 1333.058594 607.914062 1330.570312 C 602.433594 1260.480469 587.53125 1191.960938 574.476562 1123.058594 C 563.367188 1064.460938 556.027344 1004.941406 538.761719 947.671875 C 530.089844 918.921875 520.1875 887.761719 499.75 865 C 495.960938 860.769531 491.753906 856.859375 487.046875 853.660156 C 478.117188 847.589844 470.355469 845.839844 463.753906 846.769531 C 453.820312 848.171875 446.09375 855.78125 440.625 866.109375 C 435.152344 876.46875 431.863281 889.511719 430.265625 900.148438 C 429.890625 902.621094 431.585938 904.921875 434.054688 905.289062 C 436.515625 905.671875 438.820312 903.960938 439.195312 901.5 "/>
<path fill-rule="evenodd"   fill-opacity="1" d="M 623.375 1326.828125 C 627.996094 1197.230469 629.96875 1063.28125 596.082031 936.871094 C 588.386719 908.171875 578.820312 874.839844 555.089844 855.078125 C 534.613281 838.03125 505.101562 837.898438 492.863281 862.660156 C 491.757812 864.890625 492.675781 867.609375 494.90625 868.710938 C 497.144531 869.820312 499.855469 868.898438 500.960938 866.660156 C 510.441406 847.480469 533.441406 848.800781 549.304688 862.019531 C 571.628906 880.609375 580.113281 912.210938 587.355469 939.210938 C 621.011719 1064.761719 618.933594 1197.789062 614.347656 1326.511719 C 614.257812 1329 616.207031 1331.101562 618.699219 1331.179688 C 621.195312 1331.28125 623.289062 1329.328125 623.375 1326.828125 "/>
<path fill-rule="evenodd"   fill-opacity="1" d="M 379.449219 883.191406 C 380.558594 877.160156 382.019531 870.511719 385.449219 865.308594 C 390.003906 858.378906 395.453125 854.25 401.296875 852.480469 C 415.320312 848.21875 431.039062 857.179688 440.953125 870.648438 C 442.4375 872.660156 445.265625 873.089844 447.273438 871.609375 C 449.277344 870.128906 449.714844 867.300781 448.234375 865.300781 C 437.777344 851.089844 421.761719 841.640625 406.574219 842.449219 C 396.097656 843.011719 385.851562 848.261719 377.902344 860.339844 C 373.824219 866.53125 371.882812 874.371094 370.5625 881.550781 C 370.113281 884 371.734375 886.371094 374.183594 886.820312 C 376.636719 887.269531 378.992188 885.640625 379.449219 883.191406 "/>
<path fill-rule="evenodd"   fill-opacity="1" d="M 284.523438 914.429688 C 284.851562 901.390625 286.339844 886.039062 294.964844 875.621094 C 315.085938 851.308594 347.964844 864.828125 362.214844 887.03125 C 363.554688 889.128906 366.355469 889.738281 368.453125 888.398438 C 370.554688 887.050781 371.164062 884.261719 369.816406 882.160156 C 352.527344 855.21875 312.410156 840.378906 288.007812 869.859375 C 278.113281 881.808594 275.863281 899.261719 275.492188 914.199219 C 275.429688 916.699219 277.398438 918.769531 279.890625 918.839844 C 282.386719 918.898438 284.460938 916.921875 284.523438 914.429688 "/>
<path fill-rule="evenodd"   fill-opacity="1" d="M 437.300781 1367 C 356.179688 1269.71875 269.1875 1179.671875 219.0625 1061.359375 C 207.429688 1033.890625 203.050781 1000.851562 213.769531 972.328125 C 219.101562 958.140625 228.820312 948.25 240.003906 947 C 247.226562 946.179688 254.863281 949.148438 262.066406 956.558594 C 263.800781 958.351562 266.664062 958.390625 268.449219 956.648438 C 270.242188 954.910156 270.28125 952.050781 268.542969 950.261719 C 258.964844 940.410156 248.601562 936.929688 238.992188 938.011719 C 224.929688 939.601562 212.015625 951.308594 205.308594 969.148438 C 193.792969 999.808594 198.238281 1035.351562 210.746094 1064.878906 C 261.222656 1184.03125 348.671875 1274.820312 430.367188 1372.78125 C 431.964844 1374.699219 434.808594 1374.960938 436.730469 1373.359375 C 438.644531 1371.761719 438.902344 1368.910156 437.300781 1367 "/>
<path fill-rule="evenodd"   fill-opacity="1" d="M 408.933594 1383.28125 C 343.65625 1292.390625 254.390625 1215.390625 200.898438 1116.171875 C 197.023438 1108.988281 193.707031 1101.609375 190.796875 1093.988281 C 187.035156 1084.148438 178.085938 1053.929688 180.917969 1035.53125 C 181.652344 1030.761719 183.03125 1026.820312 186.265625 1025.019531 C 189.6875 1023.121094 194.636719 1023.828125 201.730469 1027.050781 C 204.003906 1028.089844 206.679688 1027.078125 207.714844 1024.808594 C 208.742188 1022.539062 207.742188 1019.859375 205.46875 1018.828125 C 194.707031 1013.941406 187.070312 1014.230469 181.867188 1017.128906 C 176.476562 1020.121094 173.210938 1026.179688 171.988281 1034.160156 C 168.933594 1053.988281 178.304688 1086.609375 182.355469 1097.21875 C 185.40625 1105.199219 188.882812 1112.929688 192.941406 1120.449219 C 246.621094 1220.019531 336.097656 1297.351562 401.59375 1388.558594 C 403.046875 1390.578125 405.871094 1391.039062 407.898438 1389.589844 C 409.925781 1388.128906 410.378906 1385.308594 408.933594 1383.28125 "/>
<path fill-rule="evenodd"   fill-opacity="1" d="M 403.300781 1408.628906 C 304.515625 1320.089844 189.734375 1238.558594 126.574219 1118.398438 C 112.101562 1090.859375 102.324219 1060.71875 105.53125 1029.230469 C 106.441406 1020.300781 108.355469 1010.960938 111.609375 1002.558594 C 116.316406 990.421875 122.496094 983.46875 129.726562 980.511719 C 136.832031 977.609375 144.753906 978.648438 152.675781 981.761719 C 170.097656 988.589844 187.429688 1005.378906 197.5 1018.738281 C 199.003906 1020.730469 201.835938 1021.128906 203.824219 1019.628906 C 205.820312 1018.128906 206.21875 1015.300781 204.71875 1013.308594 C 193.796875 998.808594 174.863281 980.761719 155.972656 973.351562 C 145.738281 969.328125 135.488281 968.398438 126.316406 972.148438 C 117.277344 975.839844 109.070312 984.128906 103.183594 999.289062 C 99.640625 1008.429688 97.53125 1018.589844 96.542969 1028.308594 C 93.15625 1061.589844 103.28125 1093.5 118.578125 1122.601562 C 182.238281 1243.71875 297.699219 1326.109375 397.265625 1415.359375 C 399.128906 1417.019531 401.980469 1416.871094 403.644531 1415.011719 C 405.3125 1413.148438 405.15625 1410.289062 403.300781 1408.628906 "/>
<path fill-rule="evenodd"   fill-opacity="1" d="M 159.085938 975.808594 C 157.363281 962.640625 156.550781 950.050781 159.101562 936.921875 C 160.730469 928.550781 163.523438 920.449219 167.707031 913.019531 C 178.554688 893.738281 204.535156 888.128906 223.277344 899.25 C 240.296875 909.339844 251.621094 928.738281 259.28125 946.640625 C 260.261719 948.929688 262.921875 949.988281 265.214844 949.011719 C 267.503906 948.03125 268.570312 945.371094 267.589844 943.078125 C 259.210938 923.5 246.503906 902.519531 227.886719 891.46875 C 204.917969 877.851562 173.128906 884.960938 159.832031 908.589844 C 155.171875 916.871094 152.042969 925.878906 150.234375 935.199219 C 147.492188 949.300781 148.277344 962.828125 150.125 976.988281 C 150.445312 979.449219 152.71875 981.199219 155.1875 980.878906 C 157.660156 980.558594 159.402344 978.289062 159.085938 975.808594 "/>
<path fill-rule="evenodd"   fill-opacity="1" d="M 214.136719 891.808594 C 218.699219 880.160156 225.15625 866.628906 235.855469 859.320312 C 253.84375 847.019531 279.035156 853.660156 291.214844 870.800781 C 292.660156 872.828125 295.480469 873.308594 297.515625 871.871094 C 299.546875 870.421875 300.027344 867.601562 298.578125 865.570312 C 283.671875 844.589844 252.773438 836.800781 230.753906 851.859375 C 218.609375 860.160156 210.902344 875.28125 205.726562 888.519531 C 204.8125 890.839844 205.960938 893.46875 208.285156 894.371094 C 210.605469 895.28125 213.230469 894.128906 214.136719 891.808594 "/>
<path fill-rule="evenodd"   fill-opacity="1" d="M 333.019531 857.609375 C 333.449219 849.898438 334.691406 842.429688 337.757812 835.300781 C 339.460938 831.339844 341.652344 827.460938 344.453125 824.160156 C 346.476562 821.78125 348.800781 819.648438 351.484375 818.050781 C 361.964844 811.808594 372.351562 814.371094 381.035156 820.558594 C 390.476562 827.28125 398.019531 838.179688 401.953125 847.988281 C 402.878906 850.300781 405.511719 851.429688 407.824219 850.5 C 410.140625 849.570312 411.269531 846.941406 410.339844 844.628906 C 405.824219 833.371094 397.109375 820.921875 386.277344 813.199219 C 374.703125 804.949219 360.824219 801.96875 346.867188 810.289062 C 343.328125 812.398438 340.238281 815.179688 337.574219 818.300781 C 334.1875 822.289062 331.515625 826.949219 329.460938 831.738281 C 325.972656 839.851562 324.488281 848.339844 324.003906 857.109375 C 323.867188 859.601562 325.777344 861.730469 328.265625 861.871094 C 330.753906 862.011719 332.886719 860.089844 333.019531 857.609375 "/>
<path fill-rule="evenodd"   fill-opacity="1" d="M 421.597656 849.238281 C 423.734375 840.519531 427.148438 832.050781 433.765625 825.761719 C 444.9375 815.148438 463.960938 813.960938 476.121094 823.578125 C 487.109375 832.28125 491.902344 847.730469 494.441406 861.148438 C 494.90625 863.601562 497.277344 865.21875 499.726562 864.75 C 502.175781 864.289062 503.785156 861.921875 503.324219 859.46875 C 500.394531 844.019531 494.375 826.5 481.726562 816.5 C 466.175781 804.191406 441.84375 805.640625 427.546875 819.21875 C 419.652344 826.699219 415.363281 836.699219 412.820312 847.089844 C 412.230469 849.519531 413.714844 851.960938 416.136719 852.550781 C 418.558594 853.148438 421.003906 851.660156 421.597656 849.238281 "/>
<path fill-rule="evenodd"   fill-opacity="1" d="M 405.027344 1426.058594 C 286.90625 1336.441406 159.964844 1260.820312 62.207031 1146.960938 C 42.21875 1123.671875 28.828125 1094.570312 33.03125 1063.261719 C 37.257812 1031.78125 73.769531 1023.039062 99.054688 1035.390625 C 101.296875 1036.488281 104 1035.558594 105.09375 1033.320312 C 106.191406 1031.078125 105.257812 1028.371094 103.015625 1027.269531 C 72.582031 1012.410156 29.167969 1024.160156 24.078125 1062.058594 C 19.523438 1095.980469 33.695312 1127.621094 55.351562 1152.839844 C 153.53125 1267.199219 280.933594 1343.238281 399.5625 1433.25 C 401.554688 1434.761719 404.386719 1434.371094 405.894531 1432.378906 C 407.402344 1430.398438 407.011719 1427.558594 405.027344 1426.058594 "/>
<path fill-rule="evenodd"   fill-opacity="1" d="M 621.1875 1327.859375 C 655.238281 1197.140625 669.542969 1062.25 647.117188 928.328125 C 641.585938 895.339844 632.800781 860.808594 606.539062 837.96875 C 582.867188 817.378906 542.597656 814.019531 526.953125 845.320312 C 525.835938 847.550781 526.742188 850.261719 528.96875 851.378906 C 531.199219 852.5 533.914062 851.589844 535.03125 849.359375 C 547.902344 823.621094 581.144531 827.851562 600.609375 844.78125 C 625.261719 866.21875 633.015625 898.859375 638.203125 929.828125 C 660.417969 1062.480469 646.175781 1196.101562 612.445312 1325.578125 C 611.816406 1328 613.265625 1330.46875 615.679688 1331.089844 C 618.09375 1331.71875 620.558594 1330.269531 621.1875 1327.859375 "/>
<path fill-rule="evenodd"   fill-opacity="1" d="M 407.128906 1438.070312 C 285.230469 1381.671875 167.21875 1319.300781 61.4375 1235.039062 C 39.59375 1217.628906 16.515625 1194.570312 10.335938 1166.25 C 5.855469 1145.730469 13.277344 1122.929688 36.03125 1122.140625 C 38.523438 1122.058594 40.476562 1119.96875 40.394531 1117.480469 C 40.308594 1114.980469 38.214844 1113.03125 35.722656 1113.121094 C 6.824219 1114.109375 -4.183594 1142.109375 1.511719 1168.179688 C 8.125 1198.488281 32.429688 1223.480469 55.808594 1242.101562 C 162.15625 1326.820312 280.777344 1389.570312 403.335938 1446.269531 C 405.597656 1447.320312 408.285156 1446.328125 409.332031 1444.058594 C 410.378906 1441.800781 409.390625 1439.121094 407.128906 1438.070312 "/>
<path fill-rule="evenodd"   fill-opacity="1" d="M 67.03125 1024.160156 C 61.574219 1004.460938 59.035156 981.980469 69.429688 963.328125 C 79.386719 945.46875 103.222656 940.460938 121.039062 949.28125 C 131.789062 954.609375 139.515625 963.96875 146.4375 973.480469 C 147.902344 975.5 150.730469 975.949219 152.75 974.480469 C 154.761719 973.011719 155.210938 970.191406 153.742188 968.171875 C 145.972656 957.480469 137.117188 947.160156 125.050781 941.191406 C 103.078125 930.300781 73.808594 936.910156 61.535156 958.929688 C 49.976562 979.679688 52.253906 1004.660156 58.324219 1026.570312 C 58.992188 1028.96875 61.480469 1030.378906 63.886719 1029.71875 C 66.285156 1029.050781 67.699219 1026.558594 67.03125 1024.160156 "/>
<path fill-rule="evenodd"   fill-opacity="1" d="M 379.449219 1103.101562 C 401.316406 1184.058594 429.367188 1261.828125 466.015625 1337.121094 C 467.105469 1339.371094 469.8125 1340.300781 472.054688 1339.199219 C 474.296875 1338.121094 475.230469 1335.410156 474.140625 1333.171875 C 437.742188 1258.390625 409.882812 1181.148438 388.175781 1100.75 C 387.523438 1098.339844 385.039062 1096.910156 382.636719 1097.558594 C 380.226562 1098.210938 378.800781 1100.691406 379.449219 1103.101562 "/>
<path fill-rule="evenodd"   fill-opacity="1" d="M 362.574219 1152.011719 C 388.269531 1216.851562 422.132812 1278.671875 455.082031 1340.109375 C 456.257812 1342.308594 458.996094 1343.140625 461.195312 1341.960938 C 463.390625 1340.78125 464.222656 1338.039062 463.039062 1335.839844 C 430.253906 1274.699219 396.539062 1213.199219 370.976562 1148.679688 C 370.050781 1146.359375 367.425781 1145.230469 365.109375 1146.140625 C 362.792969 1147.058594 361.660156 1149.691406 362.574219 1152.011719 "/>
<path fill-rule="evenodd"   fill-opacity="1" d="M 316.023438 1179.351562 C 348.359375 1223.589844 378.144531 1269.558594 409.109375 1314.769531 C 419.132812 1329.410156 427.835938 1345.609375 438.964844 1359.429688 C 440.53125 1361.371094 443.375 1361.679688 445.320312 1360.109375 C 447.261719 1358.550781 447.570312 1355.699219 446.003906 1353.761719 C 435.019531 1340.121094 426.457031 1324.121094 416.566406 1309.671875 C 385.546875 1264.378906 355.707031 1218.328125 323.316406 1174.019531 C 321.84375 1172.011719 319.015625 1171.570312 317.003906 1173.039062 C 314.992188 1174.511719 314.554688 1177.339844 316.023438 1179.351562 "/>
<path fill-rule="evenodd"   fill-opacity="1" d="M 447.726562 1118.308594 C 466.261719 1186.769531 484.261719 1255.609375 496.671875 1325.488281 C 497.105469 1327.941406 499.453125 1329.578125 501.90625 1329.140625 C 504.363281 1328.710938 506.003906 1326.359375 505.566406 1323.910156 C 493.109375 1253.761719 475.050781 1184.671875 456.441406 1115.949219 C 455.796875 1113.550781 453.3125 1112.121094 450.910156 1112.769531 C 448.496094 1113.421875 447.074219 1115.898438 447.726562 1118.308594 "/>
<path fill-rule="evenodd"   fill-opacity="1" d="M 506.902344 1137.839844 C 516.78125 1192.921875 529.46875 1250.960938 529.550781 1307.199219 C 529.550781 1309.691406 531.585938 1311.71875 534.074219 1311.710938 C 536.566406 1311.710938 538.589844 1309.679688 538.582031 1307.191406 C 538.507812 1250.421875 525.761719 1191.828125 515.796875 1136.25 C 515.355469 1133.789062 513.007812 1132.160156 510.554688 1132.601562 C 508.101562 1133.039062 506.46875 1135.390625 506.902344 1137.839844 "/>
<path fill-rule="evenodd"   fill-opacity="1" d="M 254.574219 1244.070312 C 303.871094 1299.019531 354.917969 1358.121094 414.382812 1402.738281 C 416.375 1404.238281 419.210938 1403.828125 420.699219 1401.839844 C 422.203125 1399.839844 421.796875 1397.011719 419.800781 1395.519531 C 360.800781 1351.25 310.210938 1292.558594 261.300781 1238.039062 C 259.636719 1236.179688 256.777344 1236.019531 254.921875 1237.691406 C 253.066406 1239.351562 252.910156 1242.210938 254.574219 1244.070312 "/>
<path fill-rule="evenodd"   fill-opacity="1" d="M 339.558594 1288.910156 C 369.769531 1328.941406 400.121094 1375.078125 439.863281 1406.929688 C 441.808594 1408.488281 444.65625 1408.179688 446.21875 1406.230469 C 447.777344 1404.289062 447.457031 1401.441406 445.515625 1399.878906 C 406.339844 1368.488281 376.550781 1322.921875 346.769531 1283.46875 C 345.269531 1281.480469 342.429688 1281.078125 340.441406 1282.578125 C 338.449219 1284.078125 338.058594 1286.921875 339.558594 1288.910156 "/>
<path fill-rule="evenodd"   fill-opacity="1" d="M 247.058594 1339.859375 C 296.335938 1375.609375 350.570312 1425.328125 407.933594 1447.589844 C 410.261719 1448.488281 412.882812 1447.339844 413.78125 1445.019531 C 414.683594 1442.691406 413.527344 1440.070312 411.203125 1439.171875 C 354.519531 1417.171875 301.054688 1367.871094 252.363281 1332.539062 C 250.347656 1331.078125 247.519531 1331.53125 246.058594 1333.550781 C 244.589844 1335.570312 245.042969 1338.390625 247.058594 1339.859375 "/>
<path fill-rule="evenodd"   fill-opacity="1" d="M 547.84375 1131.300781 C 556.679688 1196.148438 578.222656 1258.851562 584.015625 1324.089844 C 584.238281 1326.578125 586.433594 1328.410156 588.917969 1328.191406 C 591.398438 1327.96875 593.238281 1325.769531 593.015625 1323.289062 C 587.210938 1257.910156 565.648438 1195.070312 556.792969 1130.078125 C 556.453125 1127.609375 554.175781 1125.878906 551.710938 1126.21875 C 549.234375 1126.550781 547.503906 1128.828125 547.84375 1131.300781 "/>
<path fill-rule="evenodd"   fill-opacity="1" d="M 583.734375 1097.171875 C 588.941406 1141.398438 591.175781 1185.761719 596.175781 1229.929688 C 599.976562 1263.480469 606.355469 1297.039062 607.0625 1330.839844 C 607.113281 1333.328125 609.179688 1335.320312 611.671875 1335.269531 C 614.164062 1335.21875 616.148438 1333.148438 616.09375 1330.660156 C 615.386719 1296.578125 608.984375 1262.730469 605.152344 1228.921875 C 600.152344 1184.730469 597.910156 1140.359375 592.707031 1096.109375 C 592.414062 1093.628906 590.171875 1091.859375 587.691406 1092.148438 C 585.214844 1092.449219 583.441406 1094.691406 583.734375 1097.171875 "/>
<path fill-rule="evenodd"   fill-opacity="1" d="M 625.136719 1097.660156 C 630.222656 1169.179688 630.839844 1244.421875 617.421875 1315.261719 C 616.957031 1317.710938 618.570312 1320.078125 621.019531 1320.539062 C 623.464844 1321 625.835938 1319.390625 626.300781 1316.941406 C 639.863281 1245.339844 639.292969 1169.300781 634.148438 1097.019531 C 633.972656 1094.53125 631.808594 1092.648438 629.324219 1092.828125 C 626.835938 1093.011719 624.964844 1095.171875 625.136719 1097.660156 "/>
<path fill-rule="evenodd"   fill-opacity="1" d="M 1608.109375 1021.429688 C 1625.398438 1006.929688 1649.589844 1011.589844 1659.199219 1032.621094 C 1665.289062 1045.96875 1663.679688 1061.871094 1659.519531 1075.640625 C 1658.800781 1078.03125 1660.160156 1080.550781 1662.539062 1081.269531 C 1664.929688 1081.988281 1667.449219 1080.640625 1668.171875 1078.25 C 1672.941406 1062.441406 1674.410156 1044.191406 1667.421875 1028.871094 C 1655.171875 1002.050781 1624.351562 996.03125 1602.308594 1014.511719 C 1600.390625 1016.109375 1600.140625 1018.960938 1601.75 1020.871094 C 1603.351562 1022.78125 1606.199219 1023.03125 1608.109375 1021.429688 "/>
<path fill-rule="evenodd"   fill-opacity="1" d="M 1344.378906 126.691406 C 1344.488281 115.269531 1344.03125 103.378906 1339 92.871094 C 1333.578125 81.539062 1321.53125 72.550781 1308.539062 74.511719 C 1306.070312 74.878906 1304.371094 77.191406 1304.738281 79.648438 C 1305.109375 82.121094 1307.410156 83.808594 1309.878906 83.449219 C 1318.960938 82.070312 1327.070312 88.859375 1330.851562 96.769531 C 1335.28125 106.03125 1335.441406 116.539062 1335.339844 126.609375 C 1335.320312 129.101562 1337.328125 131.148438 1339.820312 131.171875 C 1342.320312 131.191406 1344.359375 129.179688 1344.378906 126.691406 "/>
<path fill-rule="evenodd"   fill-opacity="1" d="M 1079.621094 1134.5 C 1081.601562 1137.988281 1085.761719 1139.859375 1089.808594 1138.769531 C 1094.628906 1137.480469 1097.5 1132.519531 1096.210938 1127.699219 L 1095.820312 1126.238281 L 1095.789062 1126.109375 C 1095.761719 1125.96875 1095.71875 1125.820312 1095.691406 1125.691406 L 1095.589844 1125.378906 C 1086.300781 1090.328125 1079.238281 1055.601562 1062.53125 1022.800781 C 1031.261719 961.449219 985.285156 908.910156 956.210938 846.410156 C 921.628906 772.070312 910.925781 688.699219 869.792969 616.808594 C 845.855469 574.988281 810.230469 536.238281 761.410156 525.46875 C 755.609375 524.191406 737.957031 521.480469 725.941406 523.480469 C 718.019531 524.808594 712.207031 528.429688 709.578125 533.261719 C 709.332031 533.710938 706.558594 538.929688 711.089844 544.011719 C 713.027344 546.179688 723.144531 556.238281 723.417969 556.550781 C 730.140625 564.28125 736.175781 572.550781 741.289062 581.441406 C 757.089844 608.921875 764.929688 640.449219 773.789062 670.648438 C 797.714844 752.179688 814.636719 835.371094 852.546875 912.148438 C 898.949219 1006.121094 986.578125 1086.890625 1079.621094 1134.5 Z M 1073.148438 1110.578125 C 1066.289062 1083.390625 1059.460938 1056.570312 1046.429688 1031 C 1015.058594 969.460938 968.988281 916.730469 939.828125 854.03125 C 905.460938 780.148438 894.992188 697.21875 854.109375 625.789062 C 832.640625 588.269531 801.3125 552.78125 757.519531 543.109375 C 753.5 542.230469 742.566406 540.421875 733.316406 540.871094 C 735.347656 542.941406 736.960938 544.578125 737.054688 544.691406 C 744.546875 553.308594 751.257812 562.519531 756.953125 572.429688 C 773.460938 601.148438 781.867188 634.011719 791.128906 665.558594 C 814.753906 746.089844 831.300781 828.308594 868.75 904.140625 C 911.039062 989.789062 988.96875 1063.949219 1073.148438 1110.578125 "/>
<path fill-rule="evenodd"   fill-opacity="1" d="M 1087.679688 1124.949219 C 1042.160156 1052.28125 994.292969 981.640625 945.769531 910.949219 C 922.710938 877.351562 895.804688 846.871094 877.035156 810.421875 C 844.515625 747.28125 834.042969 675.789062 798.683594 613.851562 C 781.464844 583.671875 755.839844 558.320312 729.492188 536 C 727.589844 534.390625 724.734375 534.628906 723.128906 536.53125 C 721.515625 538.441406 721.753906 541.289062 723.652344 542.898438 C 749.210938 564.539062 774.136719 589.058594 790.835938 618.320312 C 826.132812 680.160156 836.546875 751.53125 869 814.558594 C 887.945312 851.351562 915.046875 882.148438 938.320312 916.058594 C 986.773438 986.648438 1034.570312 1057.179688 1080.019531 1129.738281 C 1081.339844 1131.851562 1084.128906 1132.5 1086.238281 1131.171875 C 1088.359375 1129.851562 1089 1127.058594 1087.679688 1124.949219 "/>
<path fill-rule="evenodd"   fill-opacity="1" d="M 1193.449219 689.128906 C 1193.390625 689.308594 1193.339844 689.5 1193.289062 689.679688 C 1177.019531 749.261719 1167.679688 810.25 1154.820312 870.71875 C 1133.78125 969.648438 1109.460938 1067.898438 1083.878906 1165.71875 C 1082.621094 1170.550781 1085.519531 1175.488281 1090.339844 1176.75 C 1095.160156 1178.011719 1100.101562 1175.121094 1101.371094 1170.300781 C 1127.011719 1072.199219 1151.398438 973.679688 1172.5 874.480469 C 1185.261719 814.449219 1194.46875 753.910156 1210.628906 694.761719 C 1219.570312 673.421875 1233.921875 658.570312 1248.941406 644.339844 C 1265.460938 628.679688 1282.78125 613.730469 1296.039062 593.289062 C 1300.820312 585.929688 1307.511719 571.761719 1309.621094 558.660156 C 1311.351562 547.921875 1309.808594 537.890625 1304.089844 531.171875 C 1300.980469 527.511719 1295.898438 525.699219 1289.261719 527.738281 C 1278.730469 530.980469 1259.929688 548.21875 1258.398438 549.800781 C 1229.210938 579.75 1214.808594 620.300781 1202.308594 659.230469 C 1199.128906 669.148438 1196.191406 679.121094 1193.449219 689.128906 Z M 1291.960938 546.101562 C 1283.808594 550.140625 1272.390625 561.320312 1271.339844 562.410156 C 1250.359375 583.941406 1237.871094 611.480469 1227.910156 639.601562 C 1230.730469 636.761719 1233.601562 633.980469 1236.511719 631.21875 C 1252.03125 616.53125 1268.441406 602.640625 1280.890625 583.460938 C 1284.699219 577.578125 1290.101562 566.269531 1291.78125 555.789062 C 1292.339844 552.300781 1292.699219 548.898438 1291.960938 546.101562 "/>
</svg>
