<?xml version="1.0" encoding="utf-8"?>
<svg viewBox="283.7999572753906 429.60003662109375 81.50006103515625 150.199951171875" width="80" height="80" xmlns="http://www.w3.org/2000/svg"><g transform="matrix(1, 0, 0, 1, 0, 0)"><g transform="matrix(1, 0, 0, 1, 0, 0)"><path class="st8" d="M335,579.3c-1.4,0.2-2.9,0.3-4.3,0.5c5.3-29.4-15.3-55.7-10-85.1c1.4-0.2,2.9-0.3,4.3-0.5&#10;&#9;C319.7,523.6,340.3,549.9,335,579.3z" style="fill: rgb(104, 165, 103);" transform="matrix(1, 0, 0, 1, 0, 0)"/><path class="st9" d="M353.3,485.3c-0.9-1.9-2.4-3.3-4.2-4.3c0,0,0-0.1,0-0.1c0,0,0-0.1,0-0.1c1.9,0.6,4,0.8,6,0.1&#10;&#9;c5.3-1.2,10.2-9.7,5.4-18.9c0.6-10.4-7.6-15.9-12.8-14.8c-2.2,0.3-4,1.3-5.5,2.7c0,0-0.1-0.1-0.1-0.1c1.2-1.7,1.9-3.6,2-5.7&#10;&#9;c0.5-5.4-6-12.7-16.2-10.9c-9.7-3.6-17.5,2.1-18,7.6c-0.4,2.1,0,4.1,0.8,6c0,0-0.1,0.1-0.2,0.1c-1.2-1.6-2.8-3-4.8-3.7&#10;&#9;c-5-2.1-14,1.8-15.5,12c-6.4,8.1-3.2,17.4,1.7,19.6c1.9,1,4,1.3,6,1c0,0.1,0,0.1,0,0.2c-1.9,0.6-3.7,1.7-5,3.5&#10;&#9;c-3.7,4.1-2.6,13.8,6.7,18.4c5.7,8.7,15.4,8.5,19.1,4.4c1.6-1.5,2.4-3.4,2.9-5.3c0.1,0,0.1,0,0.2,0c0,2,0.5,4,1.8,5.8&#10;&#9;c2.8,4.5,12.4,6.8,19.6-0.7C353.2,499.3,356.1,490,353.3,485.3z" style="fill: rgb(122, 203, 215);" transform="matrix(1, 0, 0, 1, 0, 0)"/><path class="st5" d="M349.1,483c-0.8-1.7-2.1-2.8-3.6-3.7c0,0,0,0,0-0.1c0,0,0,0,0-0.1c1.7,0.5,3.4,0.6,5.1,0.1&#10;&#9;c4.5-1,8.7-8.3,4.7-16.1c0.5-8.8-6.5-13.6-11-12.7c-1.8,0.3-3.4,1.1-4.7,2.3c0,0-0.1-0.1-0.1-0.1c1-1.4,1.6-3,1.7-4.9&#10;&#9;c0.4-4.6-5.1-10.8-13.9-9.3c-8.3-3.1-15,1.8-15.4,6.5c-0.3,1.8,0,3.5,0.7,5.1c0,0-0.1,0-0.1,0.1c-1-1.4-2.4-2.5-4.1-3.1&#10;&#9;c-4.2-1.8-12,1.6-13.2,10.3c-5.5,6.9-2.7,14.8,1.5,16.7c1.6,0.9,3.4,1.1,5.1,0.9c0,0.1,0,0.1,0,0.1c-1.6,0.6-3.1,1.5-4.2,3&#10;&#9;c-3.1,3.5-2.2,11.8,5.7,15.7c4.9,7.4,13.2,7.2,16.3,3.8c1.3-1.3,2.1-2.9,2.4-4.6c0.1,0,0.1,0,0.2,0c0,1.7,0.5,3.4,1.5,5&#10;&#9;c2.4,3.9,10.6,5.8,16.7-0.6C349,495,351.5,487,349.1,483z" style="fill: rgb(255, 255, 255);" transform="matrix(1, 0, 0, 1, 0, 0)"/><path class="st10" d="M346.7,481.6c-0.7-1.5-1.9-2.6-3.2-3.3c0,0,0,0,0-0.1c0,0,0,0,0-0.1c1.5,0.5,3.1,0.6,4.6,0.1&#10;&#9;c4.1-0.9,7.9-7.5,4.2-14.5c0.4-8-5.8-12.2-9.9-11.4c-1.7,0.2-3.1,1-4.2,2.1c0,0-0.1-0.1-0.1-0.1c0.9-1.3,1.5-2.7,1.5-4.4&#10;&#9;c0.4-4.2-4.6-9.8-12.5-8.4c-7.5-2.8-13.5,1.6-13.9,5.9c-0.3,1.6,0,3.2,0.6,4.6c0,0-0.1,0-0.1,0.1c-0.9-1.3-2.1-2.3-3.7-2.8&#10;&#9;c-3.8-1.6-10.8,1.4-11.9,9.3c-5,6.2-2.5,13.4,1.3,15.1c1.5,0.8,3,1,4.6,0.8c0,0,0,0.1,0,0.1c-1.5,0.5-2.8,1.3-3.8,2.7&#10;&#9;c-2.8,3.2-2,10.6,5.1,14.2c4.4,6.7,11.9,6.5,14.7,3.4c1.2-1.2,1.9-2.6,2.2-4.1c0,0,0.1,0,0.1,0c0,1.6,0.4,3.1,1.4,4.5&#10;&#9;c2.1,3.5,9.5,5.2,15.1-0.5C346.6,492.5,348.9,485.2,346.7,481.6z" style="fill: rgb(45, 91, 145);" transform="matrix(1, 0, 0, 1, 0, 0)"/><path d="M 333.700012 469.5 A 9 9 0 0 1 324.700012 478.5 A 9 9 0 0 1 315.700012 469.5 A 9 9 0 0 1 324.700012 460.5 A 9 9 0 0 1 333.700012 469.5 Z" class="st1" style="fill: rgb(255, 247, 147);" transform="matrix(1, 0, 0, 1, 0, 0)"/><path d="M 344.300006 524.799988 A 8.7 12.2 0 0 1 335.600006 536.999988 A 8.7 12.2 0 0 1 326.900006 524.799988 A 8.7 12.2 0 0 1 335.600006 512.599988 A 8.7 12.2 0 0 1 344.300006 524.799988 Z" transform="matrix(0.808899998664856, 0.5879999995231628, -0.5879999995231628, 0.808899998664856, 372.74169921875, -97.00180053710938)" class="st8" style="fill: rgb(104, 165, 103);"/><path d="M 324.999994 536.400024 A 8.1 11.3 0 0 1 316.899994 547.700025 A 8.1 11.3 0 0 1 308.799994 536.400024 A 8.1 11.3 0 0 1 316.899994 525.100024 A 8.1 11.3 0 0 1 324.999994 536.400024 Z" transform="matrix(0.2709999978542328, -0.9625999927520752, 0.9625999927520752, 0.2709999978542328, -285.3406982421875, 696.01220703125)" class="st8" style="fill: rgb(104, 165, 103);"/></g></g></svg>