<?xml version="1.0" encoding="UTF-8"?>
<svg xmlns="http://www.w3.org/2000/svg" xmlns:xlink="http://www.w3.org/1999/xlink" width="80" height="80" viewBox="0 0 2270.4 3843.84">
<defs>
<clipPath id="clip-0">
<path clip-rule="nonzero" d="M 1134 611 L 1294 611 L 1294 3843.839844 L 1134 3843.839844 Z M 1134 611 "/>
</clipPath>
<clipPath id="clip-1">
<path clip-rule="nonzero" d="M 1167 567 L 2270.398438 567 L 2270.398438 1332 L 1167 1332 Z M 1167 567 "/>
</clipPath>
</defs>
<g clip-path="url(#clip-0)">
<path fill-rule="evenodd" fill="rgb(71.09375%, 80.076599%, 44.309998%)" fill-opacity="1" d="M 1293.550781 3771.484375 C 1274.398438 3526.84375 1257.511719 3283.914062 1247.039062 3040.628906 C 1236.589844 2797.71875 1232.46875 2554.660156 1237.410156 2309.488281 C 1243.28125 2070.070312 1248.921875 1832.828125 1250.199219 1595.140625 C 1251.058594 1436.570312 1250.140625 1277.820312 1245.289062 1118.109375 C 1242.421875 1021.300781 1244.621094 924.761719 1237.351562 829.089844 C 1232.378906 763.609375 1223.058594 698.539062 1204.941406 634.039062 C 1200.398438 617.5 1183.28125 607.75 1166.738281 612.28125 C 1150.191406 616.820312 1140.441406 633.941406 1144.980469 650.488281 C 1161.191406 711.101562 1169.058594 772.179688 1172.910156 833.558594 C 1178.859375 928.328125 1175.238281 1023.839844 1176.761719 1119.671875 C 1179.179688 1278.550781 1178.128906 1436.410156 1174.46875 1594.058594 C 1168.960938 1831.140625 1157.859375 2067.648438 1147.101562 2306.351562 C 1134.890625 2553.359375 1132.359375 2798.5 1135.25 3043.691406 C 1138.128906 3288.570312 1146.488281 3533.320312 1157.558594 3779.859375 C 1159.871094 3817.386719 1192.210938 3845.976562 1229.738281 3843.667969 C 1267.269531 3841.355469 1295.859375 3809.011719 1293.550781 3771.484375 "/>
</g>
<path fill-rule="evenodd" fill="rgb(48.193359%, 58.396912%, 39.598083%)" fill-opacity="1" d="M 1438.800781 2736.390625 C 1421.511719 2738.28125 1511.328125 2279.308594 1857.25 2095.230469 C 2203.171875 1911.140625 2174.660156 1669.148438 2172.859375 1666.179688 C 2171.058594 1663.199219 2646.019531 2604.269531 1438.800781 2736.390625 "/>
<path fill-rule="evenodd" fill="rgb(71.09375%, 80.076599%, 44.309998%)" fill-opacity="1" d="M 1233.46875 3263.496094 C 1248.558594 3121.269531 1294.589844 2988.777344 1366.109375 2871.410156 C 1438.058594 2753.339844 1535.578125 2650.578125 1652.378906 2568.101562 C 1768.539062 2486.738281 1895.378906 2412.269531 1992.820312 2312.820312 C 2058.71875 2245.550781 2111.359375 2166.988281 2138.53125 2067.328125 C 2140.21875 2061.230469 2136.640625 2054.890625 2130.539062 2053.199219 C 2124.429688 2051.5 2118.101562 2055.078125 2116.398438 2061.179688 C 2089.449219 2156.300781 2038.320312 2231.011719 1974.519531 2294.679688 C 1877.109375 2391.878906 1750.5 2463.53125 1634.671875 2542.480469 C 1512.121094 2625.320312 1409.460938 2729.828125 1332.300781 2850.28125 C 1254.628906 2971.523438 1202.949219 3109.011719 1183.5 3257.574219 C 1181.871094 3271.363281 1191.738281 3283.886719 1205.53125 3285.519531 C 1219.308594 3287.152344 1231.839844 3277.285156 1233.46875 3263.496094 "/>
<path fill-rule="evenodd" fill="rgb(98.826599%, 73.242188%, 71.09375%)" fill-opacity="1" d="M 1176.800781 598.648438 C 945.273438 571.488281 744.671875 595.070312 560.058594 659.789062 C 361.90625 729.25 190.492188 850.820312 26.144531 1034.511719 C -19.480469 1100.019531 -3.339844 1190.238281 62.164062 1235.859375 C 127.667969 1281.488281 217.890625 1265.351562 263.515625 1199.839844 C 359.859375 1017.851562 471.214844 879.820312 621.023438 788.558594 C 776.234375 694 959.609375 647.449219 1175.789062 634.421875 C 1185.660156 634.699219 1193.898438 626.921875 1194.179688 617.050781 C 1194.460938 607.171875 1186.671875 598.929688 1176.800781 598.648438 "/>
<path fill-rule="evenodd" fill="rgb(98.826599%, 73.242188%, 71.09375%)" fill-opacity="1" d="M 1173.339844 594.328125 C 990.015625 684.761719 840.976562 800.800781 733.285156 943.429688 C 614.53125 1100.71875 558.460938 1288.929688 573.699219 1530.761719 C 589.375 1609.03125 665.652344 1659.851562 743.925781 1644.171875 C 822.195312 1628.488281 873.015625 1552.21875 857.335938 1473.949219 C 797.769531 1301.421875 796.515625 1151.421875 856.199219 1015.480469 C 922.125 865.339844 1043.46875 738.921875 1192.238281 624.710938 C 1200.628906 619.5 1203.199219 608.449219 1197.980469 600.070312 C 1192.769531 591.679688 1181.71875 589.109375 1173.339844 594.328125 "/>
<g clip-path="url(#clip-1)">
<path fill-rule="evenodd" fill="rgb(98.826599%, 73.242188%, 71.09375%)" fill-opacity="1" d="M 1186.738281 626.921875 C 1322.871094 625.171875 1466.011719 639.429688 1594.78125 687.5 C 1712.460938 731.421875 1811.800781 807.121094 1878.828125 923.011719 C 1900.050781 961.46875 1914.808594 1001.558594 1929.648438 1042.609375 C 1954.378906 1110.988281 1972.589844 1179.929688 1995.078125 1248.96875 C 2029.351562 1321.058594 2115.710938 1351.769531 2187.800781 1317.5 C 2259.898438 1283.21875 2290.609375 1196.871094 2256.328125 1124.769531 C 2208.628906 1050.648438 2166.191406 975.089844 2114.390625 903.660156 C 2090.210938 870.320312 2066.410156 837.769531 2038.109375 807.449219 C 1945.570312 704.898438 1836.101562 639.480469 1712.570312 604.238281 C 1543.351562 555.96875 1356.128906 559.28125 1183.25 591.300781 C 1173.429688 592.261719 1166.230469 601.019531 1167.191406 610.851562 C 1168.148438 620.679688 1176.910156 627.878906 1186.738281 626.921875 "/>
</g>
<path fill-rule="evenodd" fill="rgb(98.826599%, 73.242188%, 71.09375%)" fill-opacity="1" d="M 1165.269531 618.53125 C 1301.710938 719.429688 1399.671875 853.910156 1454.070312 1008.011719 C 1505.710938 1154.320312 1506.5 1312.070312 1477.351562 1468.210938 C 1473.941406 1547.960938 1535.921875 1615.488281 1615.671875 1618.898438 C 1695.429688 1622.308594 1762.949219 1560.328125 1766.359375 1480.578125 C 1747.039062 1286.078125 1686.941406 1103.75 1581.609375 944.519531 C 1482.199219 794.238281 1353.539062 665.730469 1183.46875 587.71875 C 1174.960938 582.699219 1163.980469 585.519531 1158.960938 594.03125 C 1153.941406 602.53125 1156.769531 613.511719 1165.269531 618.53125 "/>
<path fill-rule="evenodd" fill="rgb(98.826599%, 73.242188%, 71.09375%)" fill-opacity="1" d="M 1155.839844 619.320312 C 1171.871094 764.609375 1171.738281 907.699219 1150.5 1051.171875 C 1129.511719 1192.941406 1085.101562 1324.550781 1032.839844 1458.328125 C 1016.429688 1536.449219 1066.53125 1613.199219 1144.648438 1629.609375 C 1222.769531 1646.03125 1299.519531 1595.929688 1315.929688 1517.808594 C 1322.539062 1359.808594 1314.828125 1208.019531 1292.96875 1051.75 C 1271.929688 901.308594 1243.351562 754.878906 1190.679688 611.140625 C 1188.421875 601.53125 1178.789062 595.550781 1169.171875 597.808594 C 1159.558594 600.070312 1153.578125 609.699219 1155.839844 619.320312 "/>
<path fill-rule="evenodd" fill="rgb(98.826599%, 73.242188%, 71.09375%)" fill-opacity="1" d="M 1164.609375 599.589844 C 949.230469 645.980469 736.035156 735.089844 566.558594 871.839844 C 439.527344 974.339844 347.230469 1104.398438 290.460938 1271.550781 C 275.769531 1350.011719 327.542969 1425.640625 406.007812 1440.328125 C 484.472656 1455.03125 560.101562 1403.25 574.792969 1324.789062 C 577.089844 1263.460938 582.480469 1206.761719 602.125 1153.179688 C 635.054688 1063.390625 683.292969 983.140625 749.921875 913.960938 C 867.394531 792 1020.648438 702.328125 1175.738281 633.601562 C 1185.128906 630.53125 1190.261719 620.421875 1187.179688 611.03125 C 1184.109375 601.648438 1174 596.519531 1164.609375 599.589844 "/>
<path fill-rule="evenodd" fill="rgb(98.826599%, 73.242188%, 71.09375%)" fill-opacity="1" d="M 1158.421875 612.011719 C 1129.460938 648.339844 1100.210938 683.699219 1072.261719 721.429688 C 1052.679688 747.871094 1035.351562 774.578125 1019.179688 802.96875 C 975.289062 875.148438 931.824219 986.300781 890.429688 1096.421875 C 860.851562 1175.101562 838.648438 1247.921875 823.640625 1309.230469 C 821.179688 1389.019531 883.960938 1455.800781 963.75 1458.261719 C 1043.539062 1460.71875 1110.308594 1397.941406 1112.769531 1318.148438 C 1101.261719 1253.289062 1089.460938 1169.988281 1090.058594 1081.679688 C 1090.671875 990.480469 1098.359375 903.210938 1111.96875 839.601562 C 1118.730469 811.289062 1126.789062 784.078125 1137.050781 756.628906 C 1153.191406 713.449219 1171.570312 672.308594 1189.210938 630.261719 C 1194.238281 621.769531 1191.429688 610.78125 1182.941406 605.75 C 1174.441406 600.710938 1163.460938 603.519531 1158.421875 612.011719 "/>
<path fill-rule="evenodd" fill="rgb(98.826599%, 73.242188%, 71.09375%)" fill-opacity="1" d="M 1179.351562 639.070312 C 1350.761719 646.890625 1496.070312 736.71875 1596.339844 868.609375 C 1689.878906 991.640625 1729.859375 1149.96875 1724.441406 1300.191406 C 1732.621094 1379.589844 1803.738281 1437.421875 1883.140625 1429.230469 C 1962.550781 1421.039062 2020.371094 1349.929688 2012.179688 1270.519531 C 1964.96875 1078.878906 1856.320312 897.148438 1698.628906 769.429688 C 1550.648438 649.578125 1372.160156 572.539062 1177.359375 603.339844 C 1167.5 603.878906 1159.941406 612.328125 1160.488281 622.199219 C 1161.039062 632.058594 1169.488281 639.621094 1179.351562 639.070312 "/>
<path fill-rule="evenodd" fill="rgb(98.826599%, 73.242188%, 71.09375%)" fill-opacity="1" d="M 1155.011719 656.269531 C 1229.121094 763.058594 1272.351562 865.601562 1287.929688 975.898438 C 1303.148438 1083.570312 1281.050781 1187.359375 1249.53125 1306.539062 C 1244.71875 1386.21875 1305.511719 1454.820312 1385.191406 1459.628906 C 1464.871094 1464.441406 1533.46875 1403.648438 1538.28125 1323.96875 C 1517.488281 1174.199219 1485.539062 1050.238281 1423.53125 932.171875 C 1365.789062 822.21875 1294.371094 722.300781 1181.148438 631.828125 C 1174.410156 624.621094 1163.070312 624.230469 1155.859375 630.980469 C 1148.640625 637.71875 1148.261719 649.050781 1155.011719 656.269531 "/>
<path fill-rule="evenodd" fill="rgb(100%, 100%, 100%)" fill-opacity="1" d="M 1116.261719 622.519531 C 1028.949219 610.371094 935.390625 611.511719 845.226562 628.078125 C 754.167969 644.828125 666.597656 677.410156 592.347656 729.199219 C 588.066406 732.300781 587.109375 738.289062 590.210938 742.570312 C 593.3125 746.851562 599.304688 747.808594 603.585938 744.710938 C 674.273438 691.53125 758.648438 656.441406 847.074219 637.328125 C 936.050781 618.109375 1028.980469 615.070312 1115.960938 624.871094 C 1116.609375 624.949219 1117.199219 624.488281 1117.28125 623.851562 C 1117.371094 623.199219 1116.910156 622.601562 1116.261719 622.519531 "/>
<path fill-rule="evenodd" fill="rgb(100%, 100%, 100%)" fill-opacity="1" d="M 1112.28125 624.828125 C 1011.199219 663.101562 907.398438 700.828125 817.578125 758.210938 C 757 796.921875 702.753906 844.5 660.007812 907.539062 C 657.125 911.96875 658.378906 917.898438 662.808594 920.789062 C 667.234375 923.671875 673.171875 922.421875 676.054688 917.988281 C 715.269531 855.261719 766.132812 806.96875 823.726562 767.5 C 911.171875 707.589844 1013.699219 667.808594 1113.148438 627.039062 C 1113.761719 626.800781 1114.058594 626.109375 1113.820312 625.5 C 1113.578125 624.890625 1112.890625 624.589844 1112.28125 624.828125 "/>
<path fill-rule="evenodd" fill="rgb(100%, 100%, 100%)" fill-opacity="1" d="M 1117.828125 625.148438 C 1019.019531 687.671875 928.085938 755.460938 860.074219 842.089844 C 814.742188 899.828125 779.519531 965.890625 759.160156 1044.679688 C 757.929688 1049.820312 761.101562 1054.988281 766.242188 1056.21875 C 771.382812 1057.449219 776.554688 1054.28125 777.785156 1049.140625 C 799.324219 951.78125 844.320312 873.039062 903.992188 805.488281 C 964.160156 737.371094 1039.089844 680.691406 1119.121094 627.140625 C 1119.671875 626.78125 1119.820312 626.050781 1119.46875 625.5 C 1119.109375 624.949219 1118.378906 624.800781 1117.828125 625.148438 "/>
<path fill-rule="evenodd" fill="rgb(100%, 100%, 100%)" fill-opacity="1" d="M 1122.488281 604.449219 C 1082.199219 602.539062 1041.96875 599.640625 1001.699219 598.671875 C 974.785156 598.019531 947.855469 598.238281 920.882812 600.199219 C 857.367188 604.710938 785.488281 618.28125 716.597656 640.511719 C 647.296875 662.878906 581.078125 694.078125 529.394531 734.25 C 525.273438 737.558594 524.617188 743.589844 527.929688 747.710938 C 531.242188 751.828125 537.273438 752.480469 541.390625 749.171875 C 590.371094 708.449219 653.785156 675.921875 720.546875 652.160156 C 787.996094 628.160156 858.78125 613.109375 921.453125 607 C 948.183594 604.449219 974.90625 603.621094 1001.640625 603.671875 C 1041.878906 603.75 1082.121094 605.78125 1122.398438 606.808594 C 1123.050781 606.839844 1123.601562 606.328125 1123.628906 605.671875 C 1123.648438 605.019531 1123.140625 604.46875 1122.488281 604.449219 "/>
<path fill-rule="evenodd" fill="rgb(100%, 100%, 100%)" fill-opacity="1" d="M 1126.859375 621.429688 C 1046.179688 644.078125 978.835938 670.351562 917.621094 706.441406 C 855.953125 742.800781 800.511719 789.148438 744.34375 852.441406 C 729.53125 869.03125 714.15625 885.679688 699.703125 903 C 689.898438 914.75 680.542969 926.808594 672.023438 939.320312 C 669.128906 943.738281 670.371094 949.679688 674.789062 952.570312 C 679.210938 955.46875 685.152344 954.230469 688.046875 949.808594 C 695.789062 937.5 704.378906 925.621094 713.375 913.988281 C 727.066406 896.300781 741.671875 879.21875 755.734375 862.230469 C 809.039062 798.199219 862.03125 750.660156 921.722656 713.179688 C 981.519531 675.621094 1047.929688 648.160156 1127.53125 623.710938 C 1128.148438 623.519531 1128.511719 622.859375 1128.328125 622.238281 C 1128.140625 621.609375 1127.480469 621.25 1126.859375 621.429688 "/>
<path fill-rule="evenodd" fill="rgb(100%, 100%, 100%)" fill-opacity="1" d="M 1143.050781 628.78125 C 1066.609375 672.101562 992.210938 731.230469 930.585938 800.828125 C 868.308594 871.171875 819.15625 952.25 794.75 1039.519531 C 793.417969 1044.628906 796.488281 1049.871094 801.601562 1051.199219 C 806.714844 1052.53125 811.949219 1049.460938 813.28125 1044.351562 C 834.058594 958.378906 879.097656 877.449219 937.742188 806.980469 C 996.777344 736.03125 1069.488281 675.78125 1144.238281 630.828125 C 1144.808594 630.5 1145 629.769531 1144.671875 629.210938 C 1144.339844 628.640625 1143.609375 628.449219 1143.050781 628.78125 "/>
<path fill-rule="evenodd" fill="rgb(100%, 100%, 100%)" fill-opacity="1" d="M 1158.058594 632.628906 C 1123.589844 690.46875 1091.851562 768.980469 1069.710938 849.890625 C 1047.371094 931.511719 1034.910156 1015.578125 1040.429688 1084.078125 C 1040.96875 1089.339844 1045.671875 1093.179688 1050.929688 1092.640625 C 1056.179688 1092.109375 1060.019531 1087.410156 1059.488281 1082.148438 C 1051.320312 1015.449219 1059.878906 932.75 1078.851562 852.21875 C 1097.960938 771.089844 1127.609375 692.289062 1160.121094 633.808594 C 1160.441406 633.238281 1160.25 632.519531 1159.679688 632.191406 C 1159.121094 631.859375 1158.390625 632.058594 1158.058594 632.628906 "/>
<path fill-rule="evenodd" fill="rgb(100%, 100%, 100%)" fill-opacity="1" d="M 1142.210938 645.121094 C 1093.921875 715.828125 1051.390625 791.421875 1022.519531 871.039062 C 993.273438 951.691406 978.113281 1036.488281 986.085938 1125.089844 C 986.660156 1130.339844 991.390625 1134.140625 996.644531 1133.570312 C 1001.898438 1132.988281 1005.699219 1128.261719 1005.121094 1123.011719 C 994.066406 1036.960938 1005.511719 953.660156 1031.441406 874.109375 C 1057.519531 794.089844 1098.160156 718 1144.179688 646.429688 C 1144.550781 645.878906 1144.398438 645.148438 1143.851562 644.789062 C 1143.308594 644.429688 1142.570312 644.578125 1142.210938 645.121094 "/>
<path fill-rule="evenodd" fill="rgb(100%, 100%, 100%)" fill-opacity="1" d="M 1164.058594 656.300781 C 1180.96875 712.761719 1192 770.328125 1198.859375 828.488281 C 1205.71875 886.601562 1208.398438 945.261719 1208.910156 1003.910156 C 1209.03125 1024.328125 1209.441406 1044.710938 1208.628906 1065.058594 C 1208.101562 1078.429688 1207.03125 1091.769531 1205.039062 1105.089844 C 1201.691406 1127.398438 1197.050781 1149.738281 1191.398438 1171.828125 C 1185.738281 1193.921875 1179.070312 1215.75 1171.648438 1237.058594 C 1170 1242.078125 1172.730469 1247.5 1177.75 1249.148438 C 1182.769531 1250.800781 1188.191406 1248.058594 1189.839844 1243.039062 C 1196.660156 1221.011719 1202.699219 1198.46875 1207.691406 1175.699219 C 1212.679688 1152.898438 1216.640625 1129.898438 1219.261719 1106.96875 C 1220.859375 1093.101562 1221.488281 1079.230469 1221.589844 1065.359375 C 1221.730469 1044.808594 1220.71875 1024.261719 1219.949219 1003.671875 C 1217.878906 944.738281 1213.539062 885.878906 1205.210938 827.660156 C 1196.890625 769.449219 1184.589844 711.890625 1166.320312 655.601562 C 1166.121094 654.980469 1165.460938 654.628906 1164.839844 654.820312 C 1164.210938 655.019531 1163.859375 655.679688 1164.058594 656.300781 "/>
<path fill-rule="evenodd" fill="rgb(100%, 100%, 100%)" fill-opacity="1" d="M 1170.261719 655.308594 C 1206.238281 749.621094 1238.28125 849.808594 1249.578125 951.289062 C 1257.070312 1018.519531 1255.269531 1086.238281 1239.96875 1153.011719 C 1238.890625 1158.191406 1242.210938 1163.261719 1247.378906 1164.339844 C 1252.558594 1165.421875 1257.628906 1162.101562 1258.710938 1156.929688 C 1271.71875 1087.898438 1270.628906 1018.511719 1260.628906 949.871094 C 1245.820312 848.210938 1211.339844 748.25 1172.460938 654.441406 C 1172.21875 653.828125 1171.53125 653.53125 1170.929688 653.769531 C 1170.320312 654.019531 1170.019531 654.699219 1170.261719 655.308594 "/>
<path fill-rule="evenodd" fill="rgb(100%, 100%, 100%)" fill-opacity="1" d="M 1180.851562 644.140625 C 1248.519531 720.949219 1300.191406 789.519531 1334.75 865.390625 C 1368.988281 940.53125 1386.261719 1022.730469 1386.609375 1126.78125 C 1386.71875 1132.058594 1391.101562 1136.261719 1396.390625 1136.140625 C 1401.671875 1136.03125 1405.871094 1131.648438 1405.761719 1126.371094 C 1401.589844 1020.140625 1380.609375 937.011719 1343.269531 861.339844 C 1306.121094 786.039062 1252.75 718.109375 1182.609375 642.550781 C 1182.171875 642.058594 1181.421875 642.03125 1180.941406 642.460938 C 1180.449219 642.898438 1180.421875 643.648438 1180.851562 644.140625 "/>
<path fill-rule="evenodd" fill="rgb(100%, 100%, 100%)" fill-opacity="1" d="M 1176.949219 650.941406 C 1222.398438 701.308594 1263.601562 779.359375 1293.089844 862.121094 C 1322.128906 943.609375 1339.75 1029.570312 1340.039062 1097.371094 C 1340.171875 1102.648438 1344.558594 1106.839844 1349.851562 1106.710938 C 1355.128906 1106.578125 1359.308594 1102.191406 1359.191406 1096.898438 C 1356.121094 1027.761719 1334.410156 940.921875 1301.921875 858.800781 C 1269.320312 776.421875 1225.96875 698.769531 1178.691406 649.328125 C 1178.238281 648.851562 1177.488281 648.820312 1177.011719 649.261719 C 1176.539062 649.710938 1176.511719 650.460938 1176.949219 650.941406 "/>
<path fill-rule="evenodd" fill="rgb(100%, 100%, 100%)" fill-opacity="1" d="M 1201.480469 631.890625 C 1281.191406 674.910156 1358.5 743.511719 1423.539062 822.640625 C 1488.210938 901.328125 1540.640625 990.359375 1572.128906 1073.960938 C 1574.070312 1078.871094 1579.640625 1081.289062 1584.550781 1079.339844 C 1589.460938 1077.398438 1591.878906 1071.828125 1589.929688 1066.921875 C 1555.160156 983.058594 1498.710938 894.621094 1430.738281 816.550781 C 1363 738.738281 1283.878906 671.191406 1202.578125 629.789062 C 1202 629.480469 1201.289062 629.710938 1200.980469 630.289062 C 1200.679688 630.871094 1200.898438 631.578125 1201.480469 631.890625 "/>
<path fill-rule="evenodd" fill="rgb(100%, 100%, 100%)" fill-opacity="1" d="M 1200.921875 630.160156 C 1227.21875 652.871094 1253.789062 675.46875 1279.199219 699.261719 C 1296.101562 715.078125 1312.480469 731.429688 1327.921875 748.699219 C 1368.648438 794.410156 1410.601562 853.980469 1445.101562 917.578125 C 1479.238281 980.511719 1506.03125 1047.328125 1517.558594 1108.050781 C 1518.640625 1113.21875 1523.710938 1116.550781 1528.890625 1115.46875 C 1534.058594 1114.398438 1537.390625 1109.320312 1536.308594 1104.148438 C 1522.371094 1042.410156 1492.519531 975.03125 1455.578125 911.679688 C 1418.769531 848.550781 1375.011719 789.421875 1332.628906 744.378906 C 1316.671875 727.371094 1299.800781 711.289062 1282.421875 695.75 C 1256.421875 672.511719 1229.300781 650.488281 1202.449219 628.339844 C 1201.949219 627.921875 1201.199219 627.988281 1200.78125 628.488281 C 1200.359375 628.988281 1200.421875 629.730469 1200.921875 630.160156 "/>
<path fill-rule="evenodd" fill="rgb(100%, 100%, 100%)" fill-opacity="1" d="M 1212.03125 620.441406 C 1232.238281 621.371094 1252.410156 622.828125 1272.410156 625.488281 C 1292.351562 628.140625 1312.101562 631.980469 1331.53125 637.691406 C 1411.691406 661.320312 1503.261719 711.601562 1578.578125 778 C 1653.378906 843.949219 1712.171875 925.710938 1727.320312 1012.21875 C 1728.308594 1017.410156 1733.328125 1020.820312 1738.519531 1019.839844 C 1743.710938 1018.851562 1747.128906 1013.828125 1746.140625 1008.640625 C 1727.851562 919.398438 1664.960938 836.171875 1585.691406 769.730469 C 1507.839844 704.488281 1414.390625 655.308594 1332.808594 633.148438 C 1313.070312 627.769531 1293.039062 624.261719 1272.851562 621.980469 C 1252.710938 619.699219 1232.421875 618.621094 1212.121094 618.078125 C 1211.460938 618.050781 1210.910156 618.558594 1210.890625 619.21875 C 1210.871094 619.871094 1211.378906 620.421875 1212.03125 620.441406 "/>
<path fill-rule="evenodd" fill="rgb(100%, 100%, 100%)" fill-opacity="1" d="M 1209.988281 621.488281 C 1242.929688 622.800781 1275.441406 624.929688 1307.589844 629.921875 C 1328.910156 633.230469 1350.070312 637.800781 1371.089844 644.230469 C 1462.21875 672.199219 1556.28125 724.699219 1634.800781 793.710938 C 1712.898438 862.351562 1775.550781 947.289062 1804.679688 1039.929688 C 1806.328125 1044.949219 1811.75 1047.679688 1816.769531 1046.03125 C 1821.789062 1044.378906 1824.519531 1038.96875 1822.871094 1033.949219 C 1790.480469 939.53125 1723.980469 853.898438 1642.121094 785.179688 C 1561.160156 717.21875 1465.25 665.710938 1372.570312 639.238281 C 1351.21875 633.121094 1329.769531 628.871094 1308.179688 625.898438 C 1275.820312 621.449219 1243.148438 619.871094 1210.058594 619.128906 C 1209.410156 619.109375 1208.859375 619.621094 1208.839844 620.269531 C 1208.820312 620.929688 1209.328125 621.46875 1209.988281 621.488281 "/>
<path fill-rule="evenodd" fill="rgb(100%, 100%, 100%)" fill-opacity="1" d="M 1227.460938 620.308594 C 1337.828125 601.738281 1449.851562 598.199219 1555 619.910156 C 1659.941406 641.570312 1757.96875 688.390625 1840.558594 770.109375 C 1868.269531 797.628906 1893.308594 827.359375 1915.011719 859.339844 C 1936.589844 891.160156 1954.828125 925.21875 1969.078125 961.550781 C 1971.070312 966.441406 1976.660156 968.800781 1981.550781 966.820312 C 1986.449219 964.828125 1988.808594 959.238281 1986.828125 954.339844 C 1971.21875 917.128906 1951.558594 882.351562 1928.488281 849.96875 C 1905.5 817.710938 1879.171875 787.808594 1850.128906 760.25 C 1764.410156 678.628906 1663.710938 632.851562 1556.441406 612.621094 C 1450.320312 592.621094 1337.761719 597.601562 1227.050781 617.980469 C 1226.398438 618.089844 1225.96875 618.699219 1226.089844 619.351562 C 1226.199219 619.988281 1226.808594 620.421875 1227.460938 620.308594 "/>
<path fill-rule="evenodd" fill="rgb(100%, 100%, 100%)" fill-opacity="1" d="M 1242.050781 605.230469 C 1273.769531 597.628906 1305.441406 590.550781 1337.441406 585.371094 C 1358.710938 581.929688 1380.128906 579.339844 1401.808594 578.011719 C 1484.320312 573.058594 1569.808594 583.730469 1649.039062 611.078125 C 1727.890625 638.289062 1800.421875 682.039062 1857.628906 742.601562 C 1861.308594 746.378906 1867.378906 746.460938 1871.171875 742.78125 C 1874.949219 739.089844 1875.03125 733.03125 1871.351562 729.238281 C 1810.578125 668.671875 1734.578125 625.96875 1652.660156 600.121094 C 1571.648438 574.570312 1484.890625 565.410156 1401.410156 572.378906 C 1379.589844 574.160156 1358.070312 577.210938 1336.710938 581.101562 C 1304.71875 586.941406 1273.121094 594.679688 1241.480469 602.929688 C 1240.839844 603.089844 1240.460938 603.738281 1240.621094 604.371094 C 1240.78125 605 1241.421875 605.390625 1242.050781 605.230469 "/>
<path fill-rule="evenodd" fill="rgb(93.359375%, 50.193787%, 49.804688%)" fill-opacity="1" d="M 1167.28125 628.371094 C 1283.75 587.101562 1385.570312 521.691406 1449.539062 430.488281 C 1495.839844 364.46875 1519.429688 285.691406 1516 188.128906 C 1510.878906 154.371094 1479.300781 131.128906 1445.539062 136.261719 C 1411.78125 141.390625 1388.539062 172.960938 1393.671875 206.71875 C 1418 297.078125 1405.289062 374.558594 1363.210938 440.21875 C 1317.058594 512.230469 1243.179688 568.769531 1160.960938 614.421875 C 1157.121094 616.160156 1155.410156 620.699219 1157.148438 624.550781 C 1158.890625 628.398438 1163.429688 630.109375 1167.28125 628.371094 "/>
<path fill-rule="evenodd" fill="rgb(93.359375%, 50.193787%, 49.804688%)" fill-opacity="1" d="M 1162.289062 632.101562 C 1257.671875 619.691406 1404.929688 586.328125 1528.679688 531.390625 C 1626.589844 487.910156 1705.558594 427.640625 1744.25 352.71875 C 1756.699219 320.929688 1740.988281 285 1709.199219 272.558594 C 1677.398438 260.109375 1641.480469 275.820312 1629.03125 307.609375 C 1612.171875 368.640625 1560.199219 423.230469 1493.691406 468.480469 C 1385.828125 541.828125 1248.199219 591.421875 1159.171875 617.121094 C 1155.039062 617.980469 1152.378906 622.03125 1153.238281 626.171875 C 1154.101562 630.308594 1158.148438 632.960938 1162.289062 632.101562 "/>
<path fill-rule="evenodd" fill="rgb(93.359375%, 50.193787%, 49.804688%)" fill-opacity="1" d="M 1171.441406 622.921875 C 1231.050781 563.660156 1274.539062 496.53125 1306.351562 423.679688 C 1339.941406 346.761719 1356.300781 265.21875 1355.441406 175.058594 C 1350.570312 141.269531 1319.179688 117.78125 1285.378906 122.660156 C 1251.578125 127.53125 1228.101562 158.929688 1232.96875 192.71875 C 1253.761719 265.859375 1260.769531 336.269531 1248.058594 405.898438 C 1234.691406 479.128906 1203.660156 547.910156 1159.640625 613.160156 C 1156.949219 616.421875 1157.410156 621.25 1160.660156 623.941406 C 1163.921875 626.628906 1168.75 626.171875 1171.441406 622.921875 "/>
<path fill-rule="evenodd" fill="rgb(93.359375%, 50.193787%, 49.804688%)" fill-opacity="1" d="M 1167.171875 618.621094 C 1158.558594 548.589844 1156.289062 478.878906 1167.890625 410.558594 C 1178.878906 345.828125 1204.480469 286.800781 1242.320312 230.011719 C 1256.898438 199.140625 1243.679688 162.230469 1212.800781 147.640625 C 1181.929688 133.058594 1145.019531 146.28125 1130.429688 177.160156 C 1106.871094 254.738281 1100.371094 330.300781 1107 408.03125 C 1113.191406 480.648438 1127.808594 552.039062 1152.261719 622.101562 C 1153.21875 626.210938 1157.339844 628.769531 1161.449219 627.808594 C 1165.570312 626.851562 1168.128906 622.730469 1167.171875 618.621094 "/>
<path fill-rule="evenodd" fill="rgb(93.359375%, 50.193787%, 49.804688%)" fill-opacity="1" d="M 1160.78125 611.558594 C 1089.539062 549.660156 1037.011719 451.128906 1023.328125 349.449219 C 1010.988281 257.671875 1034.179688 165.710938 1104.921875 104.609375 C 1128.421875 79.828125 1127.371094 40.640625 1102.589844 17.148438 C 1077.808594 -6.351562 1038.621094 -5.308594 1015.128906 19.46875 C 952.546875 100.738281 932.582031 197.828125 948.503906 296.558594 C 969.570312 427.191406 1047.300781 557.28125 1151.601562 623.808594 C 1154.980469 626.339844 1159.78125 625.648438 1162.320312 622.269531 C 1164.851562 618.890625 1164.160156 614.089844 1160.78125 611.558594 "/>
<path fill-rule="evenodd" fill="rgb(93.359375%, 50.193787%, 49.804688%)" fill-opacity="1" d="M 1166.441406 609.050781 C 1074.808594 595.03125 984.0625 528.710938 925.445312 440.890625 C 872.515625 361.578125 849.660156 265.101562 879.566406 181.53125 C 887.828125 148.390625 867.636719 114.789062 834.507812 106.519531 C 801.375 98.261719 767.765625 118.449219 759.503906 151.589844 C 742.535156 267.660156 791.03125 387.589844 877.835938 478.929688 C 957.554688 562.820312 1063.640625 623.558594 1165.21875 624.308594 C 1169.429688 624.648438 1173.121094 621.5 1173.460938 617.289062 C 1173.789062 613.078125 1170.648438 609.390625 1166.441406 609.050781 "/>
<path fill-rule="evenodd" fill="rgb(93.359375%, 50.193787%, 49.804688%)" fill-opacity="1" d="M 1164.320312 610.050781 C 1137.628906 614.648438 1112.578125 614.71875 1087.589844 611.710938 C 1062.738281 608.71875 1038.378906 602.308594 1012.820312 593.941406 C 938.730469 568.699219 878.417969 530.359375 835.0625 477.621094 C 794.210938 427.929688 773.5 365.058594 768.0625 290.550781 C 762.03125 256.929688 729.851562 234.539062 696.242188 240.570312 C 662.628906 246.601562 640.238281 278.78125 646.265625 312.390625 C 673.152344 405.140625 717.738281 477.390625 781.527344 530.71875 C 841.5625 580.898438 915.125 615.769531 1003.621094 630.488281 C 1032.210938 635.601562 1059.238281 638.71875 1086.269531 638.171875 C 1113.410156 637.628906 1140.160156 633.839844 1167.96875 624.921875 C 1172.078125 623.910156 1174.589844 619.761719 1173.578125 615.660156 C 1172.578125 611.550781 1168.429688 609.039062 1164.320312 610.050781 "/>
</svg>
