<?xml version="1.0" encoding="UTF-8"?>
<svg xmlns="http://www.w3.org/2000/svg" xmlns:xlink="http://www.w3.org/1999/xlink" width="120" height="120" viewBox="0 0 2488 4208">
<path fill-rule="evenodd" fill="rgb(55.271912%, 25.87738%, 0%)" fill-opacity="1" d="M 1194.25 4188.359375 C 1159.839844 2336.269531 1237.960938 969.609375 1560 655.140625 C 1288.328125 1168.648438 1226.761719 2453.679688 1292.71875 4206.957031 L 1194.25 4188.359375 "/>
<path fill="none" stroke-width="5.0003" stroke-linecap="butt" stroke-linejoin="miter" stroke="rgb(0%, 0%, 0%)" stroke-opacity="1" stroke-miterlimit="2.61313" d="M 11942.5 196.40625 C 11598.398438 18717.304688 12379.609375 32383.90625 15600 35528.59375 C 12883.28125 30393.515625 12267.617188 17543.203125 12927.1875 10.429688 Z M 11942.5 196.40625 " transform="matrix(0.1, 0, 0, -0.1, 0, 4208)"/>
<path fill-rule="evenodd" fill="rgb(99.609375%, 72.068787%, 14.501953%)" fill-opacity="1" d="M 548.15625 770.761719 C 640.71875 329.769531 904.253906 375.429688 1321.960938 859.871094 C 1267.929688 901.699219 1323.660156 930.941406 1273.75 965.839844 C 851.6875 1261.019531 479.203125 1300.941406 548.15625 770.761719 "/>
<path fill="none" stroke-width="5.0003" stroke-linecap="butt" stroke-linejoin="miter" stroke="rgb(0%, 0%, 0%)" stroke-opacity="1" stroke-miterlimit="2.61313" d="M 5481.5625 34372.382812 C 6407.1875 38782.304688 9042.539062 38325.703125 13219.609375 33481.289062 C 12679.296875 33063.007812 13236.601562 32770.585938 12737.5 32421.601562 C 8516.875 29469.804688 4792.03125 29070.585938 5481.5625 34372.382812 Z M 5481.5625 34372.382812 " transform="matrix(0.1, 0, 0, -0.1, 0, 4208)"/>
<path fill="none" stroke-width="5.0003" stroke-linecap="butt" stroke-linejoin="miter" stroke="rgb(0%, 0%, 0%)" stroke-opacity="1" stroke-miterlimit="2.61313" d="M 7967.109375 33106.09375 C 9583.984375 32305.703125 11336.992188 32080.507812 13266.484375 32590.3125 " transform="matrix(0.1, 0, 0, -0.1, 0, 4208)"/>
<path fill="none" stroke-width="5.0003" stroke-linecap="butt" stroke-linejoin="miter" stroke="rgb(0%, 0%, 0%)" stroke-opacity="1" stroke-miterlimit="2.61313" d="M 8529.882812 34606.796875 C 10692.695312 34282.890625 12322.617188 33768.90625 13688.59375 33106.09375 " transform="matrix(0.1, 0, 0, -0.1, 0, 4208)"/>
<path fill-rule="evenodd" fill="rgb(99.609375%, 72.068787%, 14.501953%)" fill-opacity="1" d="M 1176.539062 9.339844 C 1597.050781 -50.558594 1653.089844 213.101562 1380.519531 768.519531 C 1324.140625 731.539062 1318.820312 793.839844 1270 758.441406 C 857.230469 459.058594 686.410156 121.25 1176.539062 9.339844 "/>
<path fill="none" stroke-width="5.0003" stroke-linecap="butt" stroke-linejoin="miter" stroke="rgb(0%, 0%, 0%)" stroke-opacity="1" stroke-miterlimit="2.61313" d="M 11765.390625 41986.601562 C 15970.507812 42585.585938 16530.898438 39948.984375 13805.195312 34394.804688 C 13241.40625 34764.609375 13188.203125 34141.601562 12700 34495.585938 C 8572.304688 37489.414062 6864.101562 40867.5 11765.390625 41986.601562 Z M 11765.390625 41986.601562 " transform="matrix(0.1, 0, 0, -0.1, 0, 4208)"/>
<path fill="none" stroke-width="5.0003" stroke-linecap="butt" stroke-linejoin="miter" stroke="rgb(0%, 0%, 0%)" stroke-opacity="1" stroke-miterlimit="2.61313" d="M 11561.09375 39221.015625 C 11448.59375 37429.6875 11890.3125 35702.109375 13040.898438 34053.203125 " transform="matrix(0.1, 0, 0, -0.1, 0, 4208)"/>
<path fill="none" stroke-width="5.0003" stroke-linecap="butt" stroke-linejoin="miter" stroke="rgb(0%, 0%, 0%)" stroke-opacity="1" stroke-miterlimit="2.61313" d="M 13082.382812 39191.289062 C 13586.992188 37044.414062 13730.390625 35336.289062 13647.1875 33827.5 " transform="matrix(0.1, 0, 0, -0.1, 0, 4208)"/>
<path fill-rule="evenodd" fill="rgb(99.609375%, 72.068787%, 14.501953%)" fill-opacity="1" d="M 2032.160156 160.070312 C 2308.039062 375.578125 2130.449219 574.851562 1544 759.5 C 1542.519531 702.339844 1490.46875 738.25 1491.871094 686.640625 C 1503.691406 250.230469 1677.390625 -64.679688 2032.160156 160.070312 "/>
<path fill="none" stroke-width="5.0003" stroke-linecap="butt" stroke-linejoin="miter" stroke="rgb(0%, 0%, 0%)" stroke-opacity="1" stroke-miterlimit="2.61313" d="M 20321.601562 40479.296875 C 23080.390625 38324.21875 21304.492188 36331.484375 15440 34485 C 15425.195312 35056.601562 14904.6875 34697.5 14918.710938 35213.59375 C 15036.914062 39577.695312 16773.90625 42726.796875 20321.601562 40479.296875 Z M 20321.601562 40479.296875 " transform="matrix(0.1, 0, 0, -0.1, 0, 4208)"/>
<path fill="none" stroke-width="5.0003" stroke-linecap="butt" stroke-linejoin="miter" stroke="rgb(0%, 0%, 0%)" stroke-opacity="1" stroke-miterlimit="2.61313" d="M 18028.203125 38865.898438 C 16553.59375 37808.90625 15430.390625 36458.398438 14754.882812 34730.703125 " transform="matrix(0.1, 0, 0, -0.1, 0, 4208)"/>
<path fill="none" stroke-width="5.0003" stroke-linecap="butt" stroke-linejoin="miter" stroke="rgb(0%, 0%, 0%)" stroke-opacity="1" stroke-miterlimit="2.61313" d="M 18831.796875 37931.484375 C 17411.992188 36279.882812 16142.1875 35121.210938 14906.40625 34223.984375 " transform="matrix(0.1, 0, 0, -0.1, 0, 4208)"/>
<path fill-rule="evenodd" fill="rgb(99.609375%, 72.068787%, 14.501953%)" fill-opacity="1" d="M 989.644531 1634.601562 C 634.726562 1401.988281 765.265625 1186.578125 1333.519531 986.660156 C 1351.640625 1048.398438 1396.421875 1009.570312 1409.890625 1065.328125 C 1523.78125 1536.789062 1430.871094 1877.128906 989.644531 1634.601562 "/>
<path fill="none" stroke-width="5.0003" stroke-linecap="butt" stroke-linejoin="miter" stroke="rgb(0%, 0%, 0%)" stroke-opacity="1" stroke-miterlimit="2.61313" d="M 9896.445312 25733.984375 C 6347.265625 28060.117188 7652.65625 30214.21875 13335.195312 32213.398438 C 13516.40625 31596.015625 13964.21875 31984.296875 14098.90625 31426.71875 C 15237.8125 26712.109375 14308.710938 23308.710938 9896.445312 25733.984375 Z M 9896.445312 25733.984375 " transform="matrix(0.1, 0, 0, -0.1, 0, 4208)"/>
<path fill="none" stroke-width="5.0003" stroke-linecap="butt" stroke-linejoin="miter" stroke="rgb(0%, 0%, 0%)" stroke-opacity="1" stroke-miterlimit="2.61313" d="M 11860.390625 27478.710938 C 13117.5 28621.71875 13916.992188 30081.484375 14132.617188 31948.59375 " transform="matrix(0.1, 0, 0, -0.1, 0, 4208)"/>
<path fill="none" stroke-width="5.0003" stroke-linecap="butt" stroke-linejoin="miter" stroke="rgb(0%, 0%, 0%)" stroke-opacity="1" stroke-miterlimit="2.61313" d="M 10737.695312 28487.617188 C 11764.414062 30272.890625 12774.882812 31525.585938 13825.195312 32495.78125 " transform="matrix(0.1, 0, 0, -0.1, 0, 4208)"/>
<path fill-rule="evenodd" fill="rgb(99.609375%, 72.068787%, 14.501953%)" fill-opacity="1" d="M 1928.488281 1616.488281 C 1587.429688 1868.980469 1430.511719 1671.949219 1439.601562 1069.628906 C 1503.800781 1074 1482.859375 1018.550781 1539.828125 1025.210938 C 2021.589844 1081.511719 2308.738281 1286.460938 1928.488281 1616.488281 "/>
<path fill="none" stroke-width="5.0003" stroke-linecap="butt" stroke-linejoin="miter" stroke="rgb(0%, 0%, 0%)" stroke-opacity="1" stroke-miterlimit="2.61313" d="M 19284.882812 25915.117188 C 15874.296875 23390.195312 14305.117188 25360.507812 14396.015625 31383.710938 C 15038.007812 31340 14828.59375 31894.492188 15398.28125 31827.890625 C 20215.898438 31264.882812 23087.382812 29215.390625 19284.882812 25915.117188 Z M 19284.882812 25915.117188 " transform="matrix(0.1, 0, 0, -0.1, 0, 4208)"/>
<path fill="none" stroke-width="5.0003" stroke-linecap="butt" stroke-linejoin="miter" stroke="rgb(0%, 0%, 0%)" stroke-opacity="1" stroke-miterlimit="2.61313" d="M 18327.695312 28361.484375 C 17690.390625 29936.40625 16597.5 31191.796875 14920.390625 32040.195312 " transform="matrix(0.1, 0, 0, -0.1, 0, 4208)"/>
<path fill="none" stroke-width="5.0003" stroke-linecap="butt" stroke-linejoin="miter" stroke="rgb(0%, 0%, 0%)" stroke-opacity="1" stroke-miterlimit="2.61313" d="M 16992.695312 27657.304688 C 15673.007812 29238.398438 14847.382812 30620 14300.585938 31941.210938 " transform="matrix(0.1, 0, 0, -0.1, 0, 4208)"/>
<path fill-rule="evenodd" fill="rgb(99.609375%, 72.068787%, 14.501953%)" fill-opacity="1" d="M 2261.53125 897.558594 C 2223.300781 1274.949219 1987.210938 1261.28125 1572.710938 895.03125 C 1616.109375 855.03125 1564.261719 835.761719 1604.71875 801.929688 C 1946.808594 515.820312 2270.289062 447.78125 2261.53125 897.558594 "/>
<path fill="none" stroke-width="5.0003" stroke-linecap="butt" stroke-linejoin="miter" stroke="rgb(0%, 0%, 0%)" stroke-opacity="1" stroke-miterlimit="2.61313" d="M 22615.3125 33104.414062 C 22233.007812 29330.507812 19872.109375 29467.1875 15727.109375 33129.6875 C 16161.09375 33529.6875 15642.617188 33722.382812 16047.1875 34060.703125 C 19468.085938 36921.796875 22702.890625 37602.1875 22615.3125 33104.414062 Z M 22615.3125 33104.414062 " transform="matrix(0.1, 0, 0, -0.1, 0, 4208)"/>
<path fill="none" stroke-width="5.0003" stroke-linecap="butt" stroke-linejoin="miter" stroke="rgb(0%, 0%, 0%)" stroke-opacity="1" stroke-miterlimit="2.61313" d="M 20306.914062 33932.109375 C 18807.5 34451.015625 17244.6875 34476.210938 15598.710938 33870.390625 " transform="matrix(0.1, 0, 0, -0.1, 0, 4208)"/>
<path fill="none" stroke-width="5.0003" stroke-linecap="butt" stroke-linejoin="miter" stroke="rgb(0%, 0%, 0%)" stroke-opacity="1" stroke-miterlimit="2.61313" d="M 19958.984375 32624.804688 C 18026.40625 32694.414062 16543.59375 32972.617188 15278.203125 33399.804688 " transform="matrix(0.1, 0, 0, -0.1, 0, 4208)"/>
<path fill-rule="evenodd" fill="rgb(85.9375%, 43.530273%, 0.78125%)" fill-opacity="1" d="M 1201.960938 871.449219 C 1201.960938 1020.351562 1315.351562 1141.058594 1455.21875 1141.058594 C 1595.089844 1141.058594 1708.480469 1020.351562 1708.480469 871.449219 C 1708.480469 516.789062 1201.960938 516.789062 1201.960938 871.449219 "/>
<path fill="none" stroke-width="5.0003" stroke-linecap="butt" stroke-linejoin="miter" stroke="rgb(0%, 0%, 0%)" stroke-opacity="1" stroke-miterlimit="2.61313" d="M 12019.609375 33365.507812 C 12019.609375 31876.484375 13153.515625 30669.414062 14552.1875 30669.414062 C 15950.898438 30669.414062 17084.804688 31876.484375 17084.804688 33365.507812 C 17084.804688 36912.109375 12019.609375 36912.109375 12019.609375 33365.507812 Z M 12019.609375 33365.507812 " transform="matrix(0.1, 0, 0, -0.1, 0, 4208)"/>
<path fill-rule="evenodd" fill="rgb(52.929688%, 67.381287%, 41.184998%)" fill-opacity="1" d="M 1289.328125 2541.378906 C 1422.109375 2025.890625 1882.199219 2068.699219 2486.699219 2357.859375 C 2019.289062 2839.769531 1607.351562 2979.929688 1289.328125 2541.378906 "/>
<path fill="none" stroke-width="5.0003" stroke-linecap="butt" stroke-linejoin="miter" stroke="rgb(0%, 0%, 0%)" stroke-opacity="1" stroke-miterlimit="2.61313" d="M 12893.28125 16666.210938 C 14221.09375 21821.09375 18821.992188 21393.007812 24866.992188 18501.40625 C 20192.890625 13682.304688 16073.515625 12280.703125 12893.28125 16666.210938 Z M 12893.28125 16666.210938 " transform="matrix(0.1, 0, 0, -0.1, 0, 4208)"/>
<path fill-rule="evenodd" fill="rgb(52.929688%, 67.381287%, 41.184998%)" fill-opacity="1" d="M 1198.378906 2115.671875 C 1065.601562 1600.191406 605.515625 1643 1.007812 1932.160156 C 468.414062 2414.070312 880.355469 2554.230469 1198.378906 2115.671875 "/>
<path fill="none" stroke-width="5.0003" stroke-linecap="butt" stroke-linejoin="miter" stroke="rgb(0%, 0%, 0%)" stroke-opacity="1" stroke-miterlimit="2.61313" d="M 11983.789062 20923.28125 C 10656.015625 26078.085938 6055.15625 25650 10.078125 22758.398438 C 4684.140625 17939.296875 8803.554688 16537.695312 11983.789062 20923.28125 Z M 11983.789062 20923.28125 " transform="matrix(0.1, 0, 0, -0.1, 0, 4208)"/>
</svg>
